<svg id="svg" version="1.1" xmlns="http://www.w3.org/2000/svg" xmlns:xlink="http://www.w3.org/1999/xlink" width="400" height="179.7752808988764" viewBox="0, 0, 400,179.7752808988764"><g id="svgg"><path id="path0" d="M360.989 0.263 C 360.989 0.473,360.631 0.537,359.236 0.578 C 357.573 0.627,357.480 0.650,357.426 1.034 C 357.375 1.391,357.264 1.438,356.482 1.438 C 355.656 1.438,355.596 1.469,355.596 1.888 C 355.596 2.307,355.536 2.337,354.697 2.337 C 353.858 2.337,353.798 2.367,353.798 2.787 C 353.798 3.206,353.738 3.236,352.899 3.236 C 352.066 3.236,352.000 3.268,352.000 3.675 C 352.000 4.063,351.911 4.121,351.236 4.169 C 350.646 4.212,350.431 4.317,350.294 4.629 C 350.186 4.877,349.960 5.034,349.710 5.034 C 349.396 5.034,349.303 5.136,349.303 5.483 C 349.303 5.843,349.213 5.933,348.854 5.933 C 348.494 5.933,348.404 6.022,348.404 6.382 C 348.404 6.703,348.307 6.831,348.064 6.831 C 347.877 6.831,347.251 7.278,346.671 7.825 C 346.092 8.371,345.436 8.975,345.213 9.166 C 344.991 9.358,344.809 9.720,344.809 9.971 C 344.809 10.338,344.721 10.427,344.360 10.427 C 344.000 10.427,343.910 10.517,343.910 10.876 C 343.910 11.236,343.820 11.326,343.461 11.326 C 343.101 11.326,343.011 11.416,343.011 11.775 C 343.011 12.135,342.921 12.225,342.562 12.225 C 342.170 12.225,342.112 12.303,342.112 12.841 C 342.112 13.284,341.986 13.556,341.663 13.811 C 341.416 14.005,341.213 14.329,341.213 14.530 C 341.213 14.773,341.077 14.916,340.809 14.954 C 340.464 15.003,340.396 15.136,340.350 15.865 C 340.300 16.636,340.252 16.719,339.855 16.719 C 339.448 16.719,339.416 16.784,339.416 17.618 C 339.416 18.457,339.386 18.517,338.966 18.517 C 338.527 18.517,338.517 18.547,338.517 19.865 C 338.517 21.184,338.507 21.213,338.067 21.213 C 337.628 21.213,337.618 21.243,337.618 22.562 C 337.618 23.880,337.608 23.910,337.169 23.910 L 336.719 23.910 336.719 26.092 C 336.719 28.188,336.701 28.290,336.270 28.690 L 335.820 29.106 335.820 33.250 L 335.820 37.393 336.338 37.393 C 337.001 37.393,337.277 38.143,338.073 42.099 C 338.205 42.759,338.431 43.528,338.574 43.807 C 338.716 44.086,338.892 44.598,338.965 44.944 C 339.176 45.952,340.586 48.954,341.667 50.697 C 342.004 51.240,342.415 51.928,342.581 52.225 C 342.747 52.521,343.053 52.979,343.261 53.241 C 343.470 53.503,343.843 53.983,344.090 54.308 C 344.682 55.087,345.471 56.027,346.247 56.878 C 347.050 57.758,350.662 60.802,351.371 61.196 C 351.667 61.361,352.274 61.730,352.719 62.016 C 353.505 62.522,355.204 63.399,356.854 64.150 C 361.420 66.229,369.184 67.087,373.706 66.013 C 375.485 65.590,376.719 65.507,376.899 65.798 C 377.239 66.348,379.685 65.864,379.685 65.246 C 379.685 65.154,380.090 65.079,380.584 65.079 C 381.423 65.079,381.483 65.049,381.483 64.629 C 381.483 64.210,381.543 64.180,382.382 64.180 C 383.221 64.180,383.281 64.150,383.281 63.730 C 383.281 63.311,383.341 63.281,384.180 63.281 C 385.019 63.281,385.079 63.251,385.079 62.831 C 385.079 62.494,385.173 62.382,385.457 62.382 C 385.666 62.382,385.995 62.180,386.189 61.933 C 386.444 61.609,386.716 61.483,387.159 61.483 C 387.692 61.483,387.775 61.424,387.775 61.046 C 387.775 60.702,387.881 60.596,388.270 60.551 C 388.624 60.511,388.780 60.380,388.821 60.090 C 388.863 59.797,389.000 59.685,389.316 59.685 C 389.662 59.685,389.753 59.592,389.753 59.236 C 389.753 58.876,389.843 58.787,390.202 58.787 C 390.562 58.787,390.652 58.697,390.652 58.337 C 390.652 57.978,390.742 57.888,391.101 57.888 C 391.461 57.888,391.551 57.798,391.551 57.438 C 391.551 57.079,391.640 56.989,392.000 56.989 C 392.356 56.989,392.449 56.898,392.449 56.552 C 392.449 56.236,392.561 56.099,392.854 56.057 C 393.114 56.021,393.279 55.855,393.316 55.596 C 393.352 55.341,393.498 55.191,393.710 55.191 C 393.962 55.191,394.083 55.001,394.195 54.427 C 394.299 53.897,394.467 53.609,394.745 53.485 C 394.984 53.380,395.146 53.149,395.146 52.914 C 395.146 52.642,395.271 52.502,395.551 52.462 C 395.896 52.413,395.963 52.279,396.010 51.551 C 396.059 50.786,396.109 50.697,396.494 50.697 C 396.870 50.697,396.930 50.603,396.978 49.933 C 397.021 49.343,397.126 49.128,397.438 48.991 C 397.775 48.843,397.843 48.672,397.843 47.970 C 397.843 47.232,397.893 47.119,398.247 47.069 C 398.593 47.020,398.665 46.876,398.742 46.079 C 398.801 45.466,398.970 44.989,399.236 44.685 C 399.573 44.299,399.640 44.012,399.640 42.965 C 399.640 42.247,399.718 41.708,399.820 41.708 C 399.938 41.708,400.000 38.772,400.000 33.258 C 400.000 27.745,399.938 24.809,399.820 24.809 C 399.718 24.809,399.640 24.290,399.640 23.612 C 399.640 22.621,399.565 22.317,399.202 21.841 C 398.907 21.454,398.745 20.978,398.708 20.386 C 398.660 19.637,398.593 19.497,398.257 19.449 C 397.923 19.402,397.853 19.261,397.807 18.551 C 397.761 17.840,397.691 17.699,397.358 17.652 C 397.024 17.604,396.954 17.464,396.908 16.753 C 396.862 16.036,396.794 15.902,396.449 15.853 C 396.122 15.806,396.045 15.681,396.045 15.193 C 396.045 14.358,395.885 14.022,395.486 14.022 C 395.253 14.022,395.146 13.895,395.146 13.616 C 395.146 13.368,394.989 13.139,394.745 13.031 C 394.467 12.908,394.299 12.620,394.195 12.090 C 394.083 11.516,393.962 11.326,393.710 11.326 C 393.498 11.326,393.352 11.176,393.316 10.921 C 393.280 10.665,393.114 10.496,392.865 10.461 C 392.620 10.426,392.450 10.257,392.416 10.011 C 392.380 9.762,392.211 9.597,391.955 9.561 C 391.662 9.519,391.551 9.382,391.551 9.066 C 391.551 8.723,391.457 8.629,391.114 8.629 C 390.797 8.629,390.661 8.517,390.619 8.225 C 390.583 7.969,390.417 7.800,390.168 7.764 C 389.923 7.729,389.754 7.560,389.719 7.315 C 389.684 7.070,389.515 6.900,389.269 6.865 C 389.024 6.830,388.855 6.661,388.820 6.416 C 388.780 6.138,388.619 6.006,388.270 5.966 C 387.881 5.921,387.775 5.815,387.775 5.471 C 387.775 5.066,387.709 5.034,386.876 5.034 C 386.037 5.034,385.978 5.004,385.978 4.584 C 385.978 4.225,385.888 4.135,385.528 4.135 C 385.169 4.135,385.079 4.045,385.079 3.685 C 385.079 3.266,385.019 3.236,384.180 3.236 C 383.341 3.236,383.281 3.206,383.281 2.787 C 383.281 2.367,383.221 2.337,382.382 2.337 C 381.543 2.337,381.483 2.307,381.483 1.888 C 381.483 1.469,381.423 1.438,380.592 1.438 C 379.882 1.438,379.611 1.347,379.252 0.989 C 378.852 0.589,378.654 0.539,377.446 0.539 C 376.360 0.539,376.090 0.486,376.090 0.270 C 376.090 0.034,375.131 0.000,368.539 0.000 C 362.031 0.000,360.989 0.036,360.989 0.263 M322.733 53.969 C 322.430 54.271,322.464 54.448,322.817 54.396 C 322.981 54.372,323.136 54.217,323.160 54.052 C 323.212 53.700,323.035 53.666,322.733 53.969 M330.607 85.014 C 330.607 85.179,331.000 85.573,331.166 85.573 C 331.434 85.573,331.191 84.972,330.906 84.930 C 330.742 84.906,330.607 84.943,330.607 85.014 M367.011 127.044 C 366.715 127.092,366.351 127.236,366.202 127.363 C 366.054 127.491,365.618 127.696,365.234 127.820 C 364.850 127.943,364.252 128.236,363.906 128.471 C 363.559 128.707,363.171 128.899,363.044 128.899 C 362.916 128.899,362.422 129.258,361.945 129.697 C 360.441 131.082,360.056 131.501,359.749 132.090 C 359.633 132.312,359.419 132.494,359.275 132.494 C 359.130 132.494,359.011 132.645,359.011 132.829 C 359.011 133.013,358.809 133.461,358.562 133.826 C 358.315 134.190,358.112 134.592,358.112 134.719 C 358.112 134.846,357.910 135.348,357.662 135.835 C 357.188 136.765,356.730 139.633,357.010 139.913 C 357.288 140.191,360.709 140.439,362.649 140.322 C 366.366 140.098,369.401 138.846,372.564 136.231 C 373.765 135.238,376.449 132.064,376.449 131.637 C 376.449 131.543,376.648 131.174,376.890 130.817 C 377.665 129.674,377.683 128.968,376.939 128.828 C 376.598 128.764,376.178 128.556,376.006 128.366 C 375.834 128.176,375.439 127.968,375.127 127.903 C 374.816 127.838,374.279 127.615,373.933 127.407 C 373.304 127.029,368.629 126.784,367.011 127.044 M355.596 144.517 C 355.596 144.743,356.123 145.150,356.250 145.023 C 356.309 144.964,356.232 144.791,356.079 144.638 C 355.767 144.325,355.596 144.283,355.596 144.517 M356.494 147.214 C 356.494 147.440,357.022 147.847,357.149 147.720 C 357.208 147.661,357.131 147.487,356.978 147.334 C 356.666 147.022,356.494 146.979,356.494 147.214 M357.543 148.832 C 357.675 148.916,357.797 149.056,357.813 149.144 C 357.829 149.232,357.903 149.283,357.978 149.258 C 358.052 149.234,358.112 149.308,358.112 149.423 C 358.112 149.539,358.166 149.580,358.231 149.514 C 358.378 149.368,357.771 148.673,357.500 148.677 C 357.390 148.678,357.410 148.747,357.543 148.832 M361.888 153.506 C 361.888 153.732,362.415 154.139,362.543 154.012 C 362.601 153.953,362.524 153.780,362.371 153.627 C 362.059 153.314,361.888 153.271,361.888 153.506 " stroke="none" fill="#43494b" fill-rule="evenodd"></path><path id="path1" d="M373.660 74.788 C 372.867 75.063,371.531 75.417,370.690 75.575 C 369.850 75.732,368.844 76.024,368.454 76.223 C 368.063 76.422,367.648 76.584,367.531 76.584 C 367.306 76.584,365.353 77.546,365.017 77.823 C 364.909 77.911,364.545 78.125,364.208 78.298 C 363.871 78.471,363.555 78.662,363.506 78.722 C 363.456 78.783,362.944 79.191,362.368 79.629 C 361.231 80.493,358.098 83.774,357.900 84.308 C 357.833 84.489,357.690 84.692,357.582 84.758 C 357.475 84.825,357.185 85.258,356.939 85.721 C 356.693 86.183,356.415 86.683,356.321 86.831 C 355.965 87.396,355.056 89.444,355.056 89.681 C 355.056 90.224,353.715 92.025,353.303 92.035 C 352.902 92.045,352.899 92.066,352.899 94.789 C 352.899 97.462,352.888 97.537,352.494 97.710 C 351.906 97.968,351.882 98.709,352.440 99.372 C 352.872 99.885,352.899 100.035,352.899 101.918 C 352.899 103.881,352.907 103.922,353.343 104.088 C 353.615 104.191,353.832 104.452,353.901 104.758 C 354.214 106.146,354.395 106.718,354.624 107.046 C 354.763 107.244,354.876 107.520,354.876 107.660 C 354.876 108.112,356.479 111.195,357.473 112.655 C 359.324 115.374,363.242 118.910,365.303 119.722 C 365.649 119.858,366.065 120.081,366.226 120.218 C 366.387 120.355,366.832 120.552,367.215 120.656 C 367.597 120.760,368.031 120.950,368.180 121.078 C 368.328 121.206,368.922 121.408,369.500 121.526 C 370.078 121.644,370.847 121.869,371.208 122.027 C 371.711 122.246,372.709 122.332,375.461 122.396 C 377.438 122.441,379.804 122.515,380.719 122.560 L 382.382 122.643 382.382 122.175 C 382.382 121.713,382.398 121.708,383.730 121.708 C 385.049 121.708,385.079 121.698,385.079 121.258 C 385.079 120.839,385.139 120.809,385.978 120.809 C 386.816 120.809,386.876 120.779,386.876 120.360 C 386.876 119.985,386.966 119.906,387.416 119.888 C 388.354 119.849,388.584 119.735,388.584 119.313 C 388.584 119.198,388.827 119.063,389.124 119.012 C 389.510 118.945,389.679 118.805,389.720 118.516 C 389.762 118.224,389.899 118.112,390.215 118.112 C 390.561 118.112,390.652 118.019,390.652 117.663 C 390.652 117.309,390.743 117.213,391.080 117.213 C 391.363 117.213,391.542 117.086,391.606 116.841 C 391.660 116.636,391.871 116.424,392.077 116.370 C 392.282 116.317,392.449 116.163,392.449 116.028 C 392.449 115.894,392.652 115.651,392.899 115.489 C 393.146 115.327,393.348 115.042,393.348 114.856 C 393.348 114.614,393.477 114.517,393.798 114.517 C 394.157 114.517,394.247 114.427,394.247 114.067 C 394.247 113.736,394.343 113.618,394.611 113.618 C 394.868 113.618,395.006 113.466,395.078 113.103 C 395.135 112.819,395.376 112.378,395.613 112.122 C 395.851 111.866,396.045 111.500,396.045 111.310 C 396.045 111.119,396.198 110.923,396.385 110.874 C 396.622 110.812,396.765 110.552,396.856 110.011 C 396.930 109.570,397.146 109.108,397.356 108.937 C 397.635 108.712,397.746 108.368,397.805 107.548 C 397.866 106.707,397.955 106.440,398.195 106.377 C 398.596 106.272,398.742 105.523,398.742 103.568 C 398.742 102.271,398.797 101.965,399.078 101.725 C 399.767 101.134,399.832 96.411,399.163 95.506 C 398.851 95.084,398.775 94.663,398.706 92.956 C 398.633 91.130,398.582 90.878,398.233 90.596 C 397.951 90.367,397.843 90.081,397.843 89.565 C 397.843 89.001,397.748 88.788,397.393 88.556 C 397.054 88.333,396.944 88.105,396.944 87.624 C 396.944 86.965,396.690 86.334,396.300 86.022 C 396.177 85.924,396.047 85.681,396.013 85.483 C 395.978 85.280,395.785 85.100,395.571 85.069 C 395.261 85.025,395.168 84.848,395.072 84.125 C 394.977 83.414,394.886 83.236,394.613 83.236 C 394.396 83.236,394.251 83.089,394.215 82.831 C 394.179 82.578,394.013 82.406,393.770 82.372 C 393.534 82.338,393.339 82.145,393.272 81.877 C 393.201 81.597,393.033 81.438,392.806 81.438 C 392.546 81.438,392.449 81.317,392.449 80.989 C 392.449 80.629,392.360 80.539,392.000 80.539 C 391.640 80.539,391.551 80.449,391.551 80.090 C 391.551 79.734,391.460 79.640,391.114 79.640 C 390.797 79.640,390.661 79.529,390.619 79.236 C 390.582 78.976,390.417 78.811,390.158 78.774 C 389.905 78.738,389.712 78.552,389.644 78.280 C 389.546 77.891,389.436 77.843,388.655 77.843 C 387.837 77.843,387.775 77.811,387.775 77.393 C 387.775 77.037,387.685 76.944,387.338 76.944 C 387.022 76.944,386.886 76.832,386.844 76.539 C 386.795 76.194,386.661 76.127,385.931 76.080 C 385.311 76.040,384.954 75.904,384.636 75.586 C 384.287 75.237,384.011 75.146,383.297 75.146 C 382.578 75.146,382.308 75.056,381.949 74.697 C 381.236 73.984,375.801 74.044,373.660 74.788 M0.000 126.742 L 0.000 164.854 4.225 164.854 L 8.449 164.854 8.482 161.663 C 8.500 159.908,8.545 158.856,8.582 159.325 C 8.639 160.053,8.713 160.194,9.088 160.288 C 9.401 160.367,9.528 160.522,9.528 160.828 C 9.528 161.167,9.623 161.258,9.978 161.258 C 10.337 161.258,10.427 161.348,10.427 161.708 C 10.427 162.055,10.520 162.157,10.834 162.157 C 11.083 162.157,11.309 162.314,11.418 162.562 C 11.555 162.874,11.770 162.979,12.360 163.022 C 13.035 163.070,13.124 163.128,13.124 163.516 C 13.124 163.923,13.189 163.955,14.022 163.955 C 14.861 163.955,14.921 163.985,14.921 164.404 C 14.921 164.844,14.952 164.854,16.257 164.854 C 17.506 164.854,17.597 164.880,17.650 165.258 L 17.708 165.663 22.332 165.699 C 26.957 165.736,27.224 165.705,27.233 165.124 C 27.235 165.025,27.834 164.920,28.565 164.890 C 29.720 164.844,29.939 164.781,30.234 164.405 C 30.510 164.054,30.768 163.963,31.602 163.919 C 32.511 163.871,32.636 163.819,32.687 163.461 C 32.725 163.192,32.867 163.056,33.110 163.056 C 33.312 163.056,33.635 162.854,33.830 162.607 C 34.084 162.284,34.356 162.157,34.800 162.157 C 35.337 162.157,35.416 162.100,35.416 161.708 C 35.416 161.348,35.506 161.258,35.865 161.258 C 36.225 161.258,36.315 161.169,36.315 160.809 C 36.315 160.449,36.404 160.360,36.764 160.360 C 37.124 160.360,37.213 160.270,37.213 159.910 C 37.213 159.551,37.303 159.461,37.663 159.461 C 38.022 159.461,38.112 159.371,38.112 159.011 C 38.112 158.652,38.202 158.562,38.562 158.562 C 38.901 158.562,39.011 158.468,39.011 158.178 C 39.011 157.967,39.213 157.607,39.461 157.378 C 39.751 157.109,39.910 156.767,39.910 156.413 C 39.910 155.948,39.978 155.865,40.360 155.865 C 40.779 155.865,40.809 155.805,40.809 154.966 C 40.809 154.127,40.839 154.067,41.258 154.067 C 41.678 154.067,41.708 154.007,41.708 153.169 C 41.708 152.330,41.738 152.270,42.157 152.270 C 42.597 152.270,42.607 152.240,42.607 150.921 C 42.607 149.603,42.617 149.573,43.056 149.573 L 43.506 149.573 43.506 147.775 L 43.506 145.978 43.957 145.978 L 44.408 145.978 44.361 137.213 L 44.315 128.449 43.910 128.272 C 43.544 128.111,43.506 127.970,43.506 126.789 C 43.506 125.516,43.494 125.483,43.056 125.483 C 42.617 125.483,42.607 125.453,42.607 124.135 C 42.607 122.816,42.597 122.787,42.157 122.787 C 41.738 122.787,41.708 122.727,41.708 121.888 C 41.708 121.049,41.678 120.989,41.258 120.989 C 40.866 120.989,40.809 120.910,40.809 120.372 C 40.809 119.787,40.439 119.191,40.077 119.191 C 39.985 119.191,39.910 118.989,39.910 118.742 C 39.910 118.382,39.820 118.292,39.461 118.292 C 39.101 118.292,39.011 118.202,39.011 117.843 C 39.011 117.483,38.921 117.393,38.562 117.393 C 38.202 117.393,38.112 117.303,38.112 116.944 C 38.112 116.584,38.022 116.494,37.663 116.494 C 37.303 116.494,37.213 116.404,37.213 116.045 C 37.213 115.685,37.124 115.596,36.764 115.596 C 36.404 115.596,36.315 115.506,36.315 115.146 C 36.315 114.790,36.224 114.697,35.878 114.697 C 35.561 114.697,35.425 114.585,35.383 114.292 C 35.334 113.947,35.201 113.880,34.472 113.833 C 33.701 113.783,33.618 113.735,33.618 113.338 C 33.618 112.935,33.549 112.899,32.785 112.899 C 32.127 112.899,31.864 112.804,31.535 112.449 C 31.132 112.015,31.043 112.000,28.785 112.000 C 26.502 112.000,26.451 111.991,26.395 111.596 C 26.291 110.865,22.437 110.901,22.204 111.635 C 22.102 111.958,21.898 111.994,19.900 112.039 C 17.781 112.088,17.706 112.103,17.650 112.494 C 17.598 112.861,17.495 112.899,16.540 112.899 C 15.529 112.899,14.921 113.174,14.921 113.631 C 14.921 113.723,14.719 113.798,14.472 113.798 C 14.112 113.798,14.022 113.888,14.022 114.247 C 14.022 114.667,13.963 114.697,13.124 114.697 C 12.285 114.697,12.225 114.727,12.225 115.146 C 12.225 115.506,12.135 115.596,11.775 115.596 C 11.416 115.596,11.326 115.685,11.326 116.045 C 11.326 116.404,11.236 116.494,10.876 116.494 C 10.517 116.494,10.427 116.584,10.427 116.944 C 10.427 117.303,10.337 117.393,9.978 117.393 C 9.621 117.393,9.528 117.484,9.528 117.830 C 9.528 118.146,9.416 118.283,9.124 118.325 C 8.783 118.373,8.702 118.525,8.613 119.281 C 8.554 119.775,8.493 113.081,8.478 104.404 L 8.449 88.629 4.225 88.629 L 0.000 88.629 0.000 126.742 M109.303 126.742 L 109.303 164.854 113.956 164.854 C 119.487 164.854,119.043 165.070,119.156 162.325 C 119.236 160.400,119.246 160.360,119.664 160.360 C 119.998 160.360,120.090 160.456,120.090 160.809 C 120.090 161.169,120.180 161.258,120.539 161.258 C 120.899 161.258,120.989 161.348,120.989 161.708 C 120.989 162.067,121.079 162.157,121.438 162.157 C 121.798 162.157,121.888 162.247,121.888 162.607 C 121.888 162.966,121.978 163.056,122.337 163.056 C 122.584 163.056,122.787 163.131,122.787 163.223 C 122.787 163.576,123.376 163.955,123.925 163.955 C 124.348 163.955,124.546 164.062,124.676 164.360 C 124.839 164.731,124.989 164.768,126.517 164.816 C 128.150 164.867,128.180 164.875,128.180 165.310 L 128.180 165.753 132.592 165.753 L 137.005 165.753 137.455 165.303 C 137.854 164.904,138.054 164.854,139.244 164.854 C 140.554 164.854,140.584 164.844,140.584 164.404 C 140.584 163.985,140.644 163.955,141.483 163.955 C 142.322 163.955,142.382 163.925,142.382 163.506 C 142.382 163.086,142.442 163.056,143.281 163.056 C 144.120 163.056,144.180 163.026,144.180 162.607 C 144.180 162.270,144.274 162.157,144.558 162.157 C 144.767 162.157,145.092 161.960,145.282 161.719 C 145.492 161.452,145.853 161.259,146.207 161.225 C 146.645 161.182,146.800 161.072,146.843 160.775 C 146.877 160.530,147.047 160.361,147.292 160.326 C 147.541 160.290,147.706 160.121,147.743 159.865 C 147.774 159.643,147.870 159.461,147.955 159.461 C 148.306 159.461,148.674 158.856,148.674 158.279 C 148.674 157.742,148.732 157.663,149.124 157.663 C 149.483 157.663,149.573 157.573,149.573 157.213 C 149.573 156.854,149.663 156.764,150.022 156.764 C 150.442 156.764,150.472 156.704,150.472 155.865 C 150.472 155.026,150.502 154.966,150.921 154.966 C 151.341 154.966,151.371 154.906,151.371 154.067 C 151.371 153.228,151.401 153.169,151.820 153.169 C 152.240 153.169,152.270 153.109,152.270 152.270 C 152.270 151.431,152.300 151.371,152.719 151.371 C 153.158 151.371,153.169 151.340,153.169 150.035 C 153.169 148.787,153.195 148.695,153.573 148.642 C 153.964 148.586,153.979 148.510,154.028 146.422 C 154.075 144.385,154.101 144.250,154.477 144.085 L 154.876 143.910 154.924 137.393 L 154.971 130.876 154.519 130.876 L 154.067 130.876 154.067 128.629 L 154.067 126.382 153.618 126.382 C 153.179 126.382,153.169 126.352,153.169 125.034 C 153.169 123.715,153.159 123.685,152.719 123.685 C 152.300 123.685,152.270 123.625,152.270 122.787 C 152.270 121.948,152.240 121.888,151.820 121.888 C 151.401 121.888,151.371 121.828,151.371 120.989 C 151.371 120.150,151.341 120.090,150.921 120.090 C 150.562 120.090,150.472 120.000,150.472 119.640 C 150.472 119.281,150.382 119.191,150.022 119.191 C 149.631 119.191,149.573 119.112,149.573 118.577 C 149.573 117.729,149.414 117.393,149.014 117.393 C 148.771 117.393,148.674 117.265,148.674 116.944 C 148.674 116.584,148.584 116.494,148.225 116.494 C 147.865 116.494,147.775 116.404,147.775 116.045 C 147.775 115.689,147.685 115.596,147.338 115.596 C 147.022 115.596,146.886 115.484,146.844 115.191 C 146.795 114.846,146.661 114.778,145.933 114.732 C 145.162 114.682,145.079 114.634,145.079 114.237 C 145.079 113.890,144.986 113.798,144.637 113.798 C 144.395 113.798,143.994 113.596,143.747 113.348 C 143.386 112.988,143.118 112.899,142.390 112.899 C 141.543 112.899,141.483 112.869,141.483 112.449 L 141.483 112.000 139.279 112.000 C 137.165 112.000,137.067 111.983,136.897 111.596 C 136.728 111.211,136.620 111.191,134.742 111.191 C 132.828 111.191,132.762 111.204,132.707 111.596 C 132.651 111.990,132.595 112.000,130.406 112.000 C 128.254 112.000,128.145 112.018,127.714 112.449 C 127.356 112.808,127.084 112.899,126.374 112.899 C 125.544 112.899,125.483 112.929,125.483 113.348 C 125.483 113.768,125.423 113.798,124.584 113.798 C 123.745 113.798,123.685 113.828,123.685 114.247 C 123.685 114.607,123.596 114.697,123.236 114.697 C 122.876 114.697,122.787 114.787,122.787 115.146 C 122.787 115.506,122.697 115.596,122.337 115.596 C 121.978 115.596,121.888 115.685,121.888 116.045 C 121.888 116.404,121.798 116.494,121.438 116.494 C 121.079 116.494,120.989 116.584,120.989 116.944 C 120.989 117.303,120.899 117.393,120.539 117.393 C 120.180 117.393,120.090 117.483,120.090 117.843 C 120.090 118.202,120.000 118.292,119.640 118.292 L 119.191 118.292 119.189 104.135 C 119.188 96.348,119.137 89.674,119.076 89.303 L 118.964 88.629 114.134 88.629 L 109.303 88.629 109.303 126.742 M165.933 126.742 L 165.933 164.854 170.337 164.854 L 174.742 164.854 174.770 161.663 C 174.785 159.908,174.846 158.876,174.905 159.371 C 174.994 160.127,175.075 160.279,175.416 160.327 C 175.708 160.369,175.820 160.505,175.820 160.821 C 175.820 161.168,175.914 161.258,176.270 161.258 C 176.629 161.258,176.719 161.348,176.719 161.708 C 176.719 162.067,176.809 162.157,177.169 162.157 C 177.416 162.157,177.618 162.232,177.618 162.324 C 177.618 162.687,178.214 163.056,178.799 163.056 C 179.337 163.056,179.416 163.114,179.416 163.506 C 179.416 163.925,179.476 163.955,180.315 163.955 C 181.154 163.955,181.213 163.985,181.213 164.404 C 181.213 164.844,181.244 164.854,182.549 164.854 C 183.798 164.854,183.889 164.880,183.943 165.258 L 184.000 165.663 188.764 165.663 L 193.528 165.663 193.586 165.258 C 193.639 164.880,193.730 164.854,194.987 164.854 C 196.173 164.854,196.383 164.802,196.770 164.414 C 197.089 164.096,197.446 163.960,198.066 163.920 C 198.796 163.873,198.930 163.806,198.979 163.461 C 199.021 163.166,199.157 163.056,199.481 163.056 C 199.726 163.056,200.129 162.854,200.376 162.607 C 200.623 162.360,201.024 162.157,201.267 162.157 C 201.617 162.157,201.708 162.065,201.708 161.708 C 201.708 161.348,201.798 161.258,202.157 161.258 C 202.517 161.258,202.607 161.169,202.607 160.809 C 202.607 160.449,202.697 160.360,203.056 160.360 C 203.416 160.360,203.506 160.270,203.506 159.910 C 203.506 159.551,203.596 159.461,203.955 159.461 C 204.315 159.461,204.404 159.371,204.404 159.011 C 204.404 158.652,204.494 158.562,204.854 158.562 C 205.201 158.562,205.303 158.469,205.303 158.155 C 205.303 157.906,205.460 157.680,205.708 157.571 C 205.983 157.450,206.166 157.151,206.280 156.637 C 206.404 156.079,206.545 155.868,206.819 155.828 C 207.125 155.785,207.201 155.626,207.245 154.933 C 207.291 154.222,207.362 154.081,207.695 154.034 C 208.029 153.986,208.098 153.846,208.145 153.124 C 208.189 152.434,208.263 152.270,208.530 152.270 C 208.962 152.270,209.079 151.926,209.079 150.649 C 209.079 149.696,209.116 149.593,209.483 149.541 C 209.854 149.488,209.892 149.376,209.941 148.176 C 209.982 147.147,210.086 146.733,210.428 146.228 L 210.863 145.588 210.873 137.459 C 210.883 129.248,210.809 128.180,210.230 128.180 C 210.044 128.180,209.972 127.896,209.955 127.101 C 209.925 125.649,209.941 125.707,209.483 125.387 C 209.174 125.170,209.078 124.926,209.076 124.349 C 209.073 123.249,208.907 122.787,208.518 122.787 C 208.253 122.787,208.180 122.654,208.180 122.172 C 208.180 121.336,208.022 120.989,207.642 120.989 C 207.399 120.989,207.292 120.788,207.197 120.159 C 207.108 119.565,206.978 119.305,206.738 119.242 C 206.553 119.194,206.377 118.981,206.347 118.768 C 206.309 118.498,206.144 118.365,205.798 118.325 C 205.409 118.280,205.303 118.174,205.303 117.831 C 205.303 117.484,205.210 117.393,204.854 117.393 C 204.494 117.393,204.404 117.303,204.404 116.944 C 204.404 116.584,204.315 116.494,203.955 116.494 C 203.596 116.494,203.506 116.404,203.506 116.045 C 203.506 115.685,203.416 115.596,203.056 115.596 C 202.697 115.596,202.607 115.506,202.607 115.146 C 202.607 114.787,202.517 114.697,202.157 114.697 C 201.836 114.697,201.708 114.599,201.708 114.356 C 201.708 113.956,201.372 113.798,200.525 113.798 C 199.989 113.798,199.910 113.740,199.910 113.348 C 199.910 112.929,199.850 112.899,199.011 112.899 C 198.517 112.899,198.112 112.824,198.112 112.732 C 198.112 112.140,197.541 112.000,195.133 112.000 C 192.884 112.000,192.719 111.977,192.719 111.660 C 192.719 110.896,189.380 110.806,188.690 111.551 C 188.290 111.982,188.188 112.000,186.092 112.000 L 183.910 112.000 183.910 112.449 C 183.910 112.869,183.851 112.899,183.003 112.899 C 182.275 112.899,182.007 112.988,181.647 113.348 C 181.399 113.596,180.999 113.798,180.756 113.798 C 180.408 113.798,180.315 113.890,180.315 114.237 C 180.315 114.634,180.232 114.682,179.461 114.732 C 178.732 114.778,178.598 114.846,178.549 115.191 C 178.508 115.484,178.371 115.596,178.055 115.596 C 177.709 115.596,177.618 115.689,177.618 116.045 C 177.618 116.404,177.528 116.494,177.169 116.494 C 176.809 116.494,176.719 116.584,176.719 116.944 C 176.719 117.303,176.629 117.393,176.270 117.393 C 175.914 117.393,175.820 117.484,175.820 117.830 C 175.820 118.146,175.708 118.283,175.416 118.325 C 175.075 118.373,174.994 118.525,174.905 119.281 C 174.846 119.775,174.785 113.081,174.770 104.404 L 174.742 88.629 170.337 88.629 L 165.933 88.629 165.933 126.742 M221.663 126.742 L 221.663 164.854 226.022 164.847 L 230.382 164.841 230.876 164.189 L 231.371 163.538 231.371 126.443 C 231.371 89.588,231.368 89.346,231.011 88.989 C 230.671 88.648,230.412 88.629,226.157 88.629 L 221.663 88.629 221.663 126.742 M257.834 92.440 C 257.715 92.559,257.618 92.964,257.618 93.339 C 257.618 93.948,257.569 94.022,257.169 94.022 C 256.809 94.022,256.719 94.112,256.719 94.472 C 256.719 94.831,256.629 94.921,256.270 94.921 C 255.912 94.921,255.820 95.012,255.820 95.363 C 255.820 95.605,255.618 96.006,255.371 96.253 C 255.124 96.501,254.921 96.909,254.921 97.160 C 254.921 97.529,254.834 97.618,254.472 97.618 C 254.080 97.618,254.022 97.697,254.022 98.234 C 254.022 98.677,253.896 98.950,253.573 99.204 C 253.326 99.398,253.124 99.722,253.124 99.923 C 253.124 100.166,252.987 100.309,252.719 100.347 C 252.374 100.396,252.307 100.530,252.260 101.258 C 252.210 102.029,252.162 102.112,251.765 102.112 C 251.358 102.112,251.326 102.178,251.326 103.011 C 251.326 103.850,251.296 103.910,250.876 103.910 C 250.458 103.910,250.427 103.971,250.427 104.796 C 250.427 105.579,250.379 105.690,250.022 105.740 C 249.677 105.789,249.610 105.923,249.563 106.652 C 249.514 107.423,249.466 107.506,249.069 107.506 C 248.642 107.506,248.629 107.544,248.629 108.854 C 248.629 110.172,248.619 110.202,248.180 110.202 C 247.763 110.202,247.730 110.265,247.730 111.058 C 247.730 111.774,247.664 111.944,247.326 112.092 C 246.955 112.255,246.917 112.406,246.870 113.921 C 246.821 115.470,246.794 115.576,246.420 115.629 C 246.045 115.682,246.020 115.784,245.971 117.438 C 245.920 119.167,245.914 119.191,245.477 119.191 L 245.034 119.191 245.034 121.438 L 245.034 123.685 244.584 123.685 L 244.135 123.685 244.135 128.564 L 244.135 133.442 243.685 133.858 C 242.990 134.503,242.987 139.209,243.683 139.863 L 244.129 140.282 244.177 145.242 C 244.224 150.173,244.227 150.203,244.624 150.377 C 245.000 150.543,245.026 150.677,245.073 152.715 C 245.122 154.802,245.137 154.878,245.528 154.934 C 245.906 154.988,245.933 155.078,245.933 156.335 C 245.933 157.529,245.983 157.729,246.382 158.129 C 246.781 158.528,246.831 158.728,246.831 159.918 C 246.831 161.228,246.842 161.258,247.281 161.258 C 247.701 161.258,247.730 161.318,247.730 162.165 C 247.730 162.893,247.819 163.161,248.180 163.522 C 248.538 163.880,248.629 164.152,248.629 164.862 C 248.629 165.692,248.660 165.753,249.079 165.753 C 249.498 165.753,249.528 165.813,249.528 166.652 C 249.528 167.491,249.558 167.551,249.978 167.551 C 250.397 167.551,250.427 167.610,250.427 168.449 C 250.427 169.288,250.457 169.348,250.876 169.348 C 251.296 169.348,251.326 169.408,251.326 170.247 C 251.326 171.086,251.356 171.146,251.775 171.146 C 252.195 171.146,252.225 171.206,252.225 172.045 C 252.225 172.884,252.255 172.944,252.674 172.944 C 253.034 172.944,253.124 173.034,253.124 173.393 C 253.124 173.753,253.213 173.843,253.573 173.843 C 253.993 173.843,254.022 173.903,254.022 174.742 C 254.022 175.581,254.052 175.640,254.472 175.640 C 254.831 175.640,254.921 175.730,254.921 176.090 C 254.921 176.449,255.011 176.539,255.371 176.539 C 255.763 176.539,255.820 176.618,255.820 177.154 C 255.820 178.001,255.979 178.337,256.379 178.337 C 256.622 178.337,256.719 178.465,256.719 178.787 C 256.719 179.146,256.809 179.236,257.169 179.236 C 257.448 179.236,257.618 179.338,257.618 179.506 C 257.618 179.738,258.227 179.775,262.022 179.775 L 266.427 179.775 266.427 179.146 C 266.427 178.595,266.371 178.517,265.978 178.517 C 265.616 178.517,265.528 178.428,265.528 178.059 C 265.528 177.808,265.326 177.399,265.079 177.152 C 264.831 176.905,264.629 176.504,264.629 176.261 C 264.629 175.911,264.537 175.820,264.180 175.820 C 263.820 175.820,263.730 175.730,263.730 175.371 C 263.730 175.011,263.640 174.921,263.281 174.921 C 262.861 174.921,262.831 174.861,262.831 174.022 C 262.831 173.184,262.801 173.124,262.382 173.124 C 262.045 173.124,261.933 173.029,261.933 172.745 C 261.933 172.537,261.730 172.207,261.483 172.013 C 261.160 171.759,261.034 171.486,261.034 171.043 C 261.034 170.506,260.976 170.427,260.584 170.427 C 260.165 170.427,260.135 170.367,260.135 169.528 C 260.135 168.689,260.105 168.629,259.685 168.629 C 259.266 168.629,259.236 168.569,259.236 167.730 C 259.236 166.891,259.206 166.831,258.787 166.831 C 258.367 166.831,258.337 166.772,258.337 165.933 C 258.337 165.094,258.307 165.034,257.888 165.034 C 257.468 165.034,257.438 164.974,257.438 164.135 C 257.438 163.296,257.408 163.236,256.989 163.236 C 256.549 163.236,256.539 163.206,256.539 161.888 C 256.539 160.569,256.529 160.539,256.090 160.539 C 255.653 160.539,255.640 160.503,255.640 159.284 C 255.640 158.096,255.617 158.023,255.191 157.917 C 254.762 157.809,254.742 157.742,254.742 156.475 C 254.742 155.182,254.730 155.146,254.298 155.146 L 253.854 155.146 253.803 153.034 C 253.756 151.047,253.729 150.911,253.353 150.746 C 252.969 150.578,252.951 150.463,252.903 147.959 C 252.855 145.406,252.845 145.347,252.449 145.291 L 252.045 145.233 252.045 136.629 L 252.045 128.025 252.449 127.968 C 252.845 127.911,252.855 127.854,252.904 125.270 C 252.952 122.696,252.963 122.629,253.353 122.574 C 253.734 122.520,253.755 122.426,253.804 120.593 C 253.851 118.791,253.883 118.646,254.298 118.320 C 254.695 118.007,254.742 117.837,254.742 116.693 C 254.742 115.450,254.754 115.416,255.191 115.416 C 255.630 115.416,255.640 115.386,255.640 114.067 C 255.640 112.749,255.650 112.719,256.090 112.719 C 256.509 112.719,256.539 112.659,256.539 111.828 C 256.539 111.118,256.630 110.847,256.989 110.488 C 257.349 110.128,257.438 109.860,257.438 109.132 C 257.438 108.284,257.468 108.225,257.888 108.225 C 258.307 108.225,258.337 108.165,258.337 107.326 C 258.337 106.487,258.367 106.427,258.787 106.427 C 259.206 106.427,259.236 106.367,259.236 105.528 C 259.236 104.689,259.266 104.629,259.685 104.629 C 260.105 104.629,260.135 104.569,260.135 103.730 C 260.135 102.891,260.165 102.831,260.584 102.831 C 260.976 102.831,261.034 102.753,261.034 102.215 C 261.034 101.772,261.160 101.500,261.483 101.246 C 261.730 101.051,261.933 100.722,261.933 100.513 C 261.933 100.229,262.045 100.135,262.382 100.135 C 262.801 100.135,262.831 100.075,262.831 99.236 C 262.831 98.397,262.861 98.337,263.281 98.337 C 263.640 98.337,263.730 98.247,263.730 97.888 C 263.730 97.528,263.820 97.438,264.180 97.438 C 264.572 97.438,264.629 97.359,264.629 96.822 C 264.629 96.379,264.755 96.107,265.079 95.852 C 265.326 95.658,265.528 95.328,265.528 95.120 C 265.528 94.836,265.640 94.742,265.978 94.742 C 266.414 94.742,266.427 94.706,266.427 93.483 L 266.427 92.225 262.238 92.225 C 259.220 92.225,257.989 92.285,257.834 92.440 M316.944 93.480 C 316.944 94.706,316.957 94.742,317.393 94.742 C 317.753 94.742,317.843 94.831,317.843 95.191 C 317.843 95.551,317.933 95.640,318.292 95.640 C 318.712 95.640,318.742 95.700,318.742 96.539 C 318.742 97.378,318.772 97.438,319.191 97.438 C 319.551 97.438,319.640 97.528,319.640 97.888 C 319.640 98.247,319.730 98.337,320.090 98.337 C 320.482 98.337,320.539 98.416,320.539 98.952 C 320.539 99.799,320.698 100.135,321.098 100.135 C 321.341 100.135,321.438 100.263,321.438 100.584 C 321.438 100.944,321.528 101.034,321.888 101.034 C 322.307 101.034,322.337 101.094,322.337 101.933 C 322.337 102.772,322.367 102.831,322.787 102.831 C 323.206 102.831,323.236 102.891,323.236 103.730 C 323.236 104.569,323.266 104.629,323.685 104.629 C 324.105 104.629,324.135 104.689,324.135 105.528 C 324.135 106.367,324.165 106.427,324.584 106.427 C 325.004 106.427,325.034 106.487,325.034 107.326 C 325.034 108.165,325.064 108.225,325.483 108.225 C 325.903 108.225,325.933 108.285,325.933 109.124 C 325.933 109.963,325.963 110.022,326.382 110.022 C 326.821 110.022,326.831 110.052,326.831 111.371 C 326.831 112.689,326.841 112.719,327.281 112.719 C 327.720 112.719,327.730 112.749,327.730 114.067 C 327.730 115.386,327.740 115.416,328.180 115.416 C 328.619 115.416,328.629 115.446,328.629 116.764 C 328.629 118.078,328.641 118.112,329.073 118.112 L 329.517 118.112 329.567 120.225 C 329.615 122.212,329.642 122.347,330.018 122.513 C 330.401 122.681,330.420 122.796,330.467 125.299 C 330.516 127.853,330.526 127.911,330.921 127.968 L 331.326 128.025 331.326 136.576 L 331.326 145.127 330.876 145.544 C 330.441 145.947,330.427 146.035,330.427 148.298 C 330.427 150.551,330.411 150.651,329.978 151.085 C 329.558 151.505,329.528 151.654,329.528 153.340 L 329.528 155.146 329.079 155.146 C 328.640 155.146,328.629 155.177,328.629 156.482 C 328.629 157.730,328.603 157.821,328.225 157.875 C 327.854 157.928,327.816 158.040,327.767 159.236 C 327.717 160.486,327.696 160.539,327.273 160.539 C 326.843 160.539,326.831 160.576,326.831 161.888 C 326.831 163.206,326.821 163.236,326.382 163.236 C 325.963 163.236,325.933 163.296,325.933 164.135 C 325.933 164.974,325.903 165.034,325.483 165.034 C 325.064 165.034,325.034 165.094,325.034 165.933 C 325.034 166.772,325.004 166.831,324.584 166.831 C 324.165 166.831,324.135 166.891,324.135 167.730 C 324.135 168.569,324.105 168.629,323.685 168.629 C 323.266 168.629,323.236 168.689,323.236 169.528 C 323.236 170.367,323.206 170.427,322.787 170.427 C 322.367 170.427,322.337 170.487,322.337 171.326 C 322.337 172.165,322.307 172.225,321.888 172.225 C 321.532 172.225,321.438 172.315,321.438 172.662 C 321.438 172.978,321.326 173.114,321.034 173.156 C 320.689 173.205,320.621 173.339,320.574 174.067 C 320.525 174.838,320.477 174.921,320.080 174.921 C 319.731 174.921,319.640 175.014,319.640 175.371 C 319.640 175.730,319.551 175.820,319.191 175.820 C 318.772 175.820,318.742 175.880,318.742 176.719 C 318.742 177.558,318.712 177.618,318.292 177.618 C 317.933 177.618,317.843 177.708,317.843 178.067 C 317.843 178.427,317.753 178.517,317.393 178.517 C 316.999 178.517,316.944 178.595,316.944 179.146 L 316.944 179.775 321.348 179.775 C 325.144 179.775,325.753 179.738,325.753 179.506 C 325.753 179.338,325.923 179.236,326.202 179.236 C 326.562 179.236,326.652 179.146,326.652 178.787 C 326.652 178.427,326.742 178.337,327.101 178.337 C 327.440 178.337,327.551 178.243,327.551 177.953 C 327.551 177.742,327.753 177.382,328.000 177.153 C 328.290 176.884,328.449 176.542,328.449 176.188 C 328.449 175.724,328.518 175.640,328.899 175.640 C 329.238 175.640,329.348 175.546,329.348 175.257 C 329.348 175.045,329.551 174.685,329.798 174.456 C 330.088 174.187,330.247 173.845,330.247 173.492 C 330.247 173.027,330.316 172.944,330.697 172.944 C 331.116 172.944,331.146 172.884,331.146 172.045 C 331.146 171.206,331.176 171.146,331.596 171.146 C 332.015 171.146,332.045 171.086,332.045 170.247 C 332.045 169.408,332.075 169.348,332.494 169.348 C 332.914 169.348,332.944 169.288,332.944 168.449 C 332.944 167.610,332.974 167.551,333.393 167.551 C 333.813 167.551,333.843 167.491,333.843 166.652 C 333.843 165.813,333.873 165.753,334.292 165.753 C 334.711 165.753,334.742 165.692,334.742 164.866 C 334.742 164.084,334.789 163.973,335.146 163.923 C 335.517 163.870,335.555 163.758,335.603 162.562 C 335.654 161.312,335.674 161.258,336.098 161.258 C 336.527 161.258,336.539 161.222,336.539 159.910 C 336.539 158.592,336.549 158.562,336.989 158.562 L 337.438 158.562 337.438 156.764 L 337.438 154.966 337.888 154.966 L 338.337 154.966 338.337 152.719 L 338.337 150.472 338.787 150.472 L 339.236 150.472 339.236 146.919 C 339.236 143.407,339.241 143.364,339.640 143.189 L 340.045 143.011 340.083 136.929 L 340.122 130.847 339.679 130.404 C 339.240 129.966,339.236 129.929,339.236 126.658 C 339.236 123.095,339.192 122.787,338.683 122.787 C 338.377 122.787,338.344 122.594,338.298 120.584 C 338.249 118.455,338.234 118.380,337.843 118.325 C 337.462 118.270,337.438 118.183,337.438 116.833 C 337.438 115.534,337.396 115.359,336.989 114.982 C 336.590 114.613,336.539 114.420,336.539 113.283 C 336.539 112.034,336.527 112.000,336.090 112.000 C 335.664 112.000,335.640 111.947,335.640 111.003 C 335.640 110.170,335.566 109.937,335.191 109.589 C 334.836 109.260,334.742 108.997,334.742 108.339 C 334.742 107.570,334.707 107.506,334.292 107.506 C 333.873 107.506,333.843 107.446,333.843 106.607 C 333.843 105.768,333.813 105.708,333.393 105.708 C 332.974 105.708,332.944 105.648,332.944 104.809 C 332.944 103.970,332.914 103.910,332.494 103.910 C 332.075 103.910,332.045 103.850,332.045 103.011 C 332.045 102.172,332.015 102.112,331.596 102.112 C 331.176 102.112,331.146 102.052,331.146 101.213 C 331.146 100.375,331.116 100.315,330.697 100.315 C 330.305 100.315,330.247 100.236,330.247 99.698 C 330.247 99.113,329.878 98.517,329.515 98.517 C 329.423 98.517,329.348 98.315,329.348 98.067 C 329.348 97.711,329.258 97.618,328.909 97.618 C 328.521 97.618,328.464 97.529,328.415 96.854 C 328.372 96.264,328.267 96.049,327.955 95.912 C 327.707 95.804,327.551 95.578,327.551 95.328 C 327.551 95.014,327.448 94.921,327.101 94.921 C 326.742 94.921,326.652 94.831,326.652 94.472 C 326.652 94.115,326.561 94.022,326.212 94.022 C 325.815 94.022,325.767 93.940,325.718 93.169 L 325.663 92.315 321.303 92.266 L 316.944 92.218 316.944 93.480 M351.497 104.306 C 351.180 104.623,351.233 104.809,351.640 104.809 C 351.880 104.809,352.000 104.689,352.000 104.449 C 352.000 104.042,351.814 103.989,351.497 104.306 M291.092 111.317 C 290.973 111.436,290.876 111.638,290.876 111.766 C 290.876 111.946,290.353 112.000,288.629 112.000 L 286.382 112.000 286.382 112.449 C 286.382 112.867,285.041 113.113,283.820 112.920 C 283.746 112.908,283.695 112.960,283.707 113.034 C 283.803 113.645,283.655 113.780,282.831 113.833 C 282.103 113.880,281.969 113.947,281.920 114.292 C 281.879 114.585,281.742 114.697,281.426 114.697 C 281.079 114.697,280.989 114.790,280.989 115.146 C 280.989 115.508,280.899 115.596,280.531 115.596 C 280.279 115.596,279.877 115.792,279.637 116.032 C 279.397 116.272,279.017 116.494,278.792 116.526 C 278.531 116.563,278.362 116.727,278.326 116.978 C 278.291 117.223,278.122 117.392,277.877 117.427 C 277.643 117.460,277.462 117.631,277.431 117.848 C 277.402 118.049,277.200 118.292,276.981 118.387 C 276.677 118.521,276.571 118.741,276.529 119.326 C 276.480 120.001,276.423 120.090,276.035 120.090 C 275.686 120.090,275.596 120.183,275.596 120.539 C 275.596 120.899,275.506 120.989,275.146 120.989 C 274.754 120.989,274.697 121.068,274.697 121.605 C 274.697 122.048,274.570 122.320,274.247 122.575 C 274.000 122.769,273.798 123.099,273.798 123.307 C 273.798 123.515,273.723 123.685,273.631 123.685 C 273.171 123.685,272.899 124.293,272.899 125.316 C 272.899 126.333,272.878 126.382,272.449 126.382 C 272.010 126.382,272.000 126.412,272.000 127.730 C 272.000 129.049,271.990 129.079,271.551 129.079 L 271.101 129.079 271.101 131.313 C 271.101 133.494,271.091 133.549,270.697 133.605 L 270.292 133.663 270.244 138.848 L 270.197 144.034 270.644 144.385 C 271.074 144.724,271.093 144.824,271.141 147.110 C 271.190 149.417,271.202 149.485,271.596 149.541 C 271.974 149.594,272.000 149.685,272.000 150.934 C 272.000 152.239,272.010 152.270,272.449 152.270 C 272.869 152.270,272.899 152.330,272.899 153.169 C 272.899 154.007,272.929 154.067,273.348 154.067 C 273.768 154.067,273.798 154.127,273.798 154.966 C 273.798 155.805,273.828 155.865,274.247 155.865 C 274.667 155.865,274.697 155.925,274.697 156.764 C 274.697 157.603,274.727 157.663,275.146 157.663 C 275.506 157.663,275.596 157.753,275.596 158.112 C 275.596 158.472,275.685 158.562,276.045 158.562 C 276.404 158.562,276.494 158.652,276.494 159.011 C 276.494 159.371,276.584 159.461,276.944 159.461 C 277.303 159.461,277.393 159.551,277.393 159.910 C 277.393 160.270,277.483 160.360,277.843 160.360 C 278.202 160.360,278.292 160.449,278.292 160.809 C 278.292 161.169,278.382 161.258,278.742 161.258 C 279.101 161.258,279.191 161.348,279.191 161.708 C 279.191 162.047,279.285 162.157,279.575 162.157 C 279.786 162.157,280.146 162.360,280.375 162.607 C 280.640 162.892,280.987 163.056,281.327 163.056 C 281.746 163.056,281.875 163.145,281.920 163.461 C 281.971 163.819,282.096 163.871,283.005 163.919 C 283.845 163.963,284.096 164.053,284.379 164.413 C 284.688 164.806,284.862 164.854,285.991 164.854 C 287.166 164.854,287.260 164.883,287.313 165.258 L 287.371 165.663 293.079 165.710 L 298.787 165.758 298.787 165.311 L 298.787 164.865 300.989 164.815 C 303.105 164.766,303.193 164.748,303.247 164.368 C 303.298 164.010,303.423 163.966,304.506 163.918 C 305.554 163.872,305.731 163.813,305.885 163.461 C 306.003 163.192,306.230 163.049,306.559 163.034 C 307.454 162.993,307.685 162.875,307.685 162.457 C 307.685 162.342,307.908 162.222,308.180 162.190 C 308.568 162.146,308.674 162.040,308.674 161.696 C 308.674 161.291,308.741 161.258,309.573 161.258 L 310.472 161.258 310.472 156.498 L 310.472 151.737 310.037 151.628 C 309.363 151.459,308.949 151.606,308.888 152.037 C 308.840 152.368,308.698 152.439,307.989 152.485 C 307.272 152.531,307.138 152.600,307.089 152.944 C 307.047 153.237,306.910 153.348,306.594 153.348 C 306.248 153.348,306.157 153.442,306.157 153.798 C 306.157 154.217,306.097 154.247,305.258 154.247 C 304.419 154.247,304.360 154.277,304.360 154.697 C 304.360 155.116,304.300 155.146,303.461 155.146 C 302.626 155.146,302.562 155.178,302.562 155.588 C 302.562 156.011,302.508 156.031,301.258 156.082 C 300.060 156.131,299.950 156.168,299.897 156.542 L 299.839 156.949 294.864 156.902 L 289.888 156.854 289.830 156.449 C 289.780 156.093,289.668 156.045,288.898 156.045 C 288.182 156.045,288.004 155.980,287.910 155.686 C 287.804 155.352,287.572 155.245,286.652 155.106 C 286.454 155.076,286.282 154.951,286.270 154.829 C 286.257 154.707,286.237 154.531,286.225 154.439 C 286.212 154.347,286.020 154.246,285.798 154.215 C 285.538 154.178,285.373 154.013,285.336 153.753 C 285.299 153.491,285.155 153.348,284.927 153.348 C 284.717 153.348,284.506 153.167,284.404 152.899 C 284.311 152.652,284.116 152.449,283.972 152.449 C 283.828 152.449,283.685 152.267,283.653 152.045 C 283.617 151.792,283.451 151.620,283.210 151.585 C 282.902 151.542,282.799 151.364,282.701 150.711 C 282.612 150.116,282.484 149.867,282.233 149.801 C 282.004 149.741,281.887 149.552,281.885 149.237 C 281.881 148.434,281.681 147.955,281.350 147.955 C 281.079 147.955,281.022 147.733,280.952 146.400 C 280.883 145.077,280.812 144.797,280.480 144.528 C 280.142 144.254,280.090 144.031,280.090 142.848 L 280.090 141.483 296.629 141.483 L 313.169 141.483 313.169 134.382 L 313.169 127.281 312.719 127.281 C 312.279 127.281,312.270 127.251,312.270 125.924 C 312.270 124.725,312.219 124.517,311.830 124.128 C 311.512 123.810,311.375 123.453,311.336 122.833 C 311.289 122.103,311.222 121.969,310.876 121.920 C 310.519 121.869,310.472 121.759,310.472 120.976 C 310.472 120.151,310.441 120.090,310.022 120.090 C 309.663 120.090,309.573 120.000,309.573 119.640 C 309.573 119.284,309.482 119.191,309.133 119.191 C 308.737 119.191,308.689 119.108,308.639 118.337 C 308.592 117.608,308.525 117.475,308.180 117.426 C 307.887 117.384,307.775 117.248,307.775 116.931 C 307.775 116.585,307.682 116.494,307.326 116.494 C 306.966 116.494,306.876 116.404,306.876 116.045 C 306.876 115.689,306.786 115.596,306.439 115.596 C 306.123 115.596,305.987 115.484,305.945 115.191 C 305.896 114.846,305.762 114.778,305.034 114.732 C 304.263 114.682,304.180 114.634,304.180 114.237 C 304.180 113.830,304.114 113.798,303.281 113.798 C 302.442 113.798,302.382 113.768,302.382 113.348 C 302.382 112.929,302.322 112.899,301.483 112.899 C 300.647 112.899,300.584 112.868,300.584 112.454 L 300.584 112.010 297.933 111.960 C 295.337 111.911,295.280 111.902,295.223 111.506 C 295.156 111.033,291.541 110.868,291.092 111.317 M344.449 112.160 C 344.449 112.282,344.356 112.323,344.242 112.252 C 344.119 112.177,344.083 112.203,344.153 112.316 C 344.218 112.422,344.170 112.550,344.046 112.600 C 343.905 112.656,343.897 112.696,344.023 112.705 C 344.285 112.723,344.716 112.207,344.565 112.056 C 344.501 111.992,344.449 112.039,344.449 112.160 M54.516 132.090 L 54.562 151.281 54.966 151.338 C 55.355 151.394,55.371 151.467,55.371 153.181 C 55.371 154.965,55.371 154.966,55.820 154.966 C 56.240 154.966,56.270 155.026,56.270 155.873 C 56.270 156.601,56.358 156.869,56.719 157.230 C 56.966 157.477,57.169 157.878,57.169 158.121 C 57.169 158.471,57.261 158.562,57.618 158.562 C 58.037 158.562,58.067 158.622,58.067 159.461 C 58.067 160.300,58.097 160.360,58.517 160.360 C 58.876 160.360,58.966 160.449,58.966 160.809 C 58.966 161.169,59.056 161.258,59.416 161.258 C 59.775 161.258,59.865 161.348,59.865 161.708 C 59.865 162.067,59.955 162.157,60.315 162.157 C 60.674 162.157,60.764 162.247,60.764 162.607 C 60.764 163.026,60.824 163.056,61.663 163.056 C 62.502 163.056,62.562 163.086,62.562 163.506 C 62.562 163.925,62.622 163.955,63.461 163.955 C 64.300 163.955,64.360 163.985,64.360 164.404 C 64.360 164.844,64.390 164.854,65.695 164.854 C 66.944 164.854,67.035 164.880,67.089 165.258 L 67.146 165.663 71.910 165.663 L 76.674 165.663 76.732 165.258 C 76.785 164.880,76.876 164.854,78.125 164.854 C 79.430 164.854,79.461 164.844,79.461 164.404 C 79.461 163.985,79.521 163.955,80.360 163.955 C 81.193 163.955,81.258 163.923,81.258 163.516 C 81.258 163.128,81.347 163.070,82.022 163.022 C 82.612 162.979,82.827 162.874,82.964 162.562 C 83.073 162.314,83.299 162.157,83.548 162.157 C 83.862 162.157,83.955 162.055,83.955 161.708 C 83.955 161.348,84.045 161.258,84.404 161.258 C 84.764 161.258,84.854 161.169,84.854 160.809 C 84.854 160.562,84.935 160.349,85.034 160.337 C 85.133 160.325,85.311 160.304,85.430 160.292 C 85.548 160.280,85.674 159.946,85.708 159.551 C 85.841 158.014,85.905 158.590,85.918 161.447 C 85.928 163.505,85.999 164.489,86.148 164.638 C 86.305 164.795,87.634 164.854,91.002 164.854 L 95.640 164.854 95.640 138.876 L 95.640 112.899 90.787 112.899 L 85.933 112.899 85.933 130.414 L 85.933 147.930 85.528 147.987 C 85.183 148.037,85.116 148.170,85.069 148.899 C 85.039 149.369,84.943 149.753,84.857 149.753 C 84.504 149.753,84.135 150.356,84.135 150.934 C 84.135 151.472,84.077 151.551,83.685 151.551 C 83.266 151.551,83.236 151.610,83.236 152.449 C 83.236 153.288,83.206 153.348,82.787 153.348 C 82.427 153.348,82.337 153.438,82.337 153.798 C 82.337 154.157,82.247 154.247,81.888 154.247 C 81.531 154.247,81.438 154.338,81.438 154.687 C 81.438 155.084,81.355 155.132,80.584 155.181 C 79.862 155.227,79.722 155.297,79.674 155.631 C 79.628 155.954,79.483 156.035,78.865 156.080 C 78.287 156.122,78.071 156.228,77.935 156.539 C 77.759 156.940,77.719 156.944,74.127 156.944 C 70.499 156.944,70.497 156.944,70.439 156.539 C 70.390 156.194,70.257 156.127,69.528 156.080 C 68.757 156.031,68.674 155.983,68.674 155.586 C 68.674 155.240,68.581 155.146,68.237 155.146 C 67.921 155.146,67.784 155.034,67.743 154.742 C 67.706 154.482,67.541 154.317,67.281 154.280 C 66.988 154.238,66.876 154.101,66.876 153.785 C 66.876 153.439,66.783 153.348,66.427 153.348 C 66.090 153.348,65.978 153.254,65.978 152.970 C 65.978 152.761,65.775 152.432,65.528 152.238 C 65.139 151.931,65.079 151.741,65.079 150.818 C 65.079 149.805,65.057 149.753,64.635 149.753 L 64.191 149.753 64.141 147.640 C 64.093 145.646,64.067 145.518,63.685 145.351 L 63.281 145.173 63.281 129.036 L 63.281 112.899 58.876 112.899 L 54.470 112.899 54.516 132.090 M342.396 118.866 C 342.066 119.337,342.095 119.389,342.615 119.253 C 342.846 119.192,343.011 119.008,343.011 118.810 C 343.011 118.358,342.735 118.382,342.396 118.866 M25.708 120.360 C 25.708 120.778,25.769 120.809,26.594 120.809 C 27.377 120.809,27.487 120.856,27.538 121.213 C 27.587 121.559,27.721 121.626,28.449 121.673 C 29.220 121.722,29.303 121.770,29.303 122.167 C 29.303 122.516,29.396 122.607,29.753 122.607 C 30.112 122.607,30.202 122.697,30.202 123.056 C 30.202 123.416,30.292 123.506,30.652 123.506 C 31.011 123.506,31.101 123.596,31.101 123.955 C 31.101 124.315,31.191 124.404,31.551 124.404 C 31.888 124.404,32.000 124.499,32.000 124.783 C 32.000 124.991,32.202 125.321,32.449 125.515 C 32.773 125.770,32.899 126.042,32.899 126.485 C 32.899 127.022,32.956 127.101,33.348 127.101 C 33.788 127.101,33.798 127.131,33.798 128.449 C 33.798 129.768,33.808 129.798,34.247 129.798 L 34.697 129.798 34.697 132.212 C 34.697 134.620,34.837 135.191,35.429 135.191 C 35.521 135.191,35.596 136.037,35.596 137.079 C 35.596 138.120,35.521 138.966,35.429 138.966 C 34.815 138.966,34.697 139.518,34.697 142.382 C 34.697 145.202,34.692 145.234,34.292 145.291 C 33.921 145.344,33.883 145.456,33.835 146.652 C 33.782 147.954,33.704 148.082,33.034 147.976 C 32.960 147.965,32.908 148.016,32.920 148.090 C 33.059 148.968,32.867 149.732,32.494 149.785 C 32.149 149.834,32.082 149.968,32.035 150.697 C 31.986 151.468,31.938 151.551,31.541 151.551 C 31.195 151.551,31.101 151.644,31.101 151.987 C 31.101 152.304,30.989 152.440,30.697 152.482 C 30.443 152.518,30.272 152.684,30.237 152.925 C 30.207 153.138,30.019 153.354,29.819 153.407 C 29.620 153.459,29.414 153.665,29.362 153.864 C 29.309 154.064,29.093 154.252,28.881 154.282 C 28.639 154.316,28.473 154.488,28.437 154.742 C 28.395 155.034,28.259 155.146,27.943 155.146 C 27.596 155.146,27.506 155.239,27.506 155.596 C 27.506 156.015,27.446 156.045,26.607 156.045 C 25.768 156.045,25.708 156.075,25.708 156.494 L 25.708 156.944 21.616 156.944 C 17.544 156.944,17.523 156.942,17.346 156.539 C 17.209 156.227,16.994 156.122,16.404 156.080 C 15.984 156.049,15.640 155.954,15.640 155.868 C 15.640 155.515,15.037 155.146,14.459 155.146 C 13.921 155.146,13.843 155.089,13.843 154.697 C 13.843 154.337,13.753 154.247,13.393 154.247 C 13.034 154.247,12.944 154.157,12.944 153.798 C 12.944 153.438,12.854 153.348,12.494 153.348 C 12.135 153.348,12.045 153.258,12.045 152.899 C 12.045 152.542,11.954 152.449,11.605 152.449 C 11.208 152.449,11.160 152.366,11.111 151.596 C 11.065 150.873,10.995 150.733,10.661 150.685 C 10.328 150.638,10.257 150.497,10.212 149.786 C 10.166 149.075,10.096 148.935,9.761 148.887 C 9.403 148.837,9.359 148.712,9.311 147.629 C 9.265 146.581,9.207 146.404,8.854 146.250 L 8.449 146.072 8.449 139.326 L 8.449 132.580 8.854 132.402 C 9.225 132.239,9.263 132.089,9.310 130.562 C 9.361 128.929,9.370 128.899,9.804 128.899 C 10.216 128.899,10.247 128.835,10.247 128.000 C 10.247 127.161,10.277 127.101,10.697 127.101 C 11.044 127.101,11.146 127.008,11.146 126.694 C 11.146 126.445,11.303 126.219,11.551 126.110 C 11.863 125.973,11.968 125.758,12.010 125.169 C 12.059 124.493,12.117 124.404,12.505 124.404 C 12.853 124.404,12.944 124.312,12.944 123.955 C 12.944 123.596,13.034 123.506,13.393 123.506 C 13.753 123.506,13.843 123.416,13.843 123.056 C 13.843 122.675,13.926 122.607,14.391 122.607 C 14.744 122.607,15.086 122.447,15.355 122.157 C 15.584 121.910,15.944 121.708,16.155 121.708 C 16.445 121.708,16.539 121.598,16.539 121.258 C 16.539 120.836,16.599 120.808,17.528 120.787 C 18.922 120.755,19.109 120.694,19.169 120.255 C 19.181 120.164,19.201 120.049,19.213 120.000 C 19.226 119.951,20.692 119.910,22.472 119.910 L 25.708 119.910 25.708 120.360 M135.804 120.360 C 136.165 120.720,136.433 120.809,137.160 120.809 C 138.008 120.809,138.067 120.838,138.067 121.258 C 138.067 121.616,138.158 121.708,138.509 121.708 C 138.751 121.708,139.152 121.910,139.399 122.157 C 139.647 122.404,140.055 122.607,140.306 122.607 C 140.675 122.607,140.764 122.694,140.764 123.056 C 140.764 123.413,140.855 123.506,141.203 123.506 C 141.591 123.506,141.649 123.594,141.698 124.270 C 141.740 124.860,141.845 125.074,142.157 125.211 C 142.405 125.320,142.562 125.546,142.562 125.795 C 142.562 126.110,142.664 126.202,143.011 126.202 C 143.431 126.202,143.461 126.262,143.461 127.101 C 143.461 127.936,143.492 128.000,143.903 128.000 C 144.338 128.000,144.347 128.030,144.398 129.663 C 144.445 131.190,144.482 131.340,144.854 131.503 L 145.258 131.681 145.258 137.528 L 145.258 143.375 144.854 143.553 C 144.482 143.716,144.445 143.866,144.398 145.393 C 144.347 147.026,144.338 147.056,143.903 147.056 C 143.493 147.056,143.461 147.120,143.461 147.947 C 143.461 148.657,143.370 148.929,143.011 149.287 C 142.764 149.534,142.562 149.942,142.562 150.194 C 142.562 150.446,142.481 150.662,142.382 150.674 C 142.283 150.687,142.101 150.707,141.978 150.719 C 141.741 150.743,141.721 150.816,141.685 151.820 C 141.666 152.366,141.603 152.449,141.213 152.449 C 140.854 152.449,140.764 152.539,140.764 152.899 C 140.764 153.258,140.674 153.348,140.315 153.348 C 139.955 153.348,139.865 153.438,139.865 153.798 C 139.865 154.157,139.775 154.247,139.416 154.247 C 139.056 154.247,138.966 154.337,138.966 154.697 C 138.966 155.089,138.888 155.146,138.350 155.146 C 137.765 155.146,137.169 155.516,137.169 155.878 C 137.169 155.970,136.891 156.045,136.552 156.045 C 135.967 156.045,135.371 156.415,135.371 156.777 C 135.371 156.875,133.703 156.944,131.345 156.944 L 127.320 156.944 127.207 156.494 C 127.108 156.100,126.997 156.045,126.301 156.045 C 125.616 156.045,125.500 155.990,125.451 155.640 C 125.410 155.351,125.253 155.220,124.899 155.179 C 124.552 155.139,124.404 155.020,124.404 154.778 C 124.404 154.564,124.240 154.393,123.972 154.325 C 123.734 154.266,123.498 154.056,123.446 153.859 C 123.395 153.662,123.192 153.459,122.995 153.408 C 122.798 153.356,122.588 153.120,122.529 152.882 C 122.469 152.644,122.306 152.449,122.166 152.449 C 122.027 152.449,121.887 152.267,121.855 152.045 C 121.819 151.788,121.653 151.620,121.403 151.584 C 121.084 151.539,120.984 151.369,120.884 150.707 C 120.796 150.121,120.665 149.861,120.426 149.799 C 120.206 149.741,120.089 149.547,120.087 149.237 C 120.083 148.415,119.885 147.955,119.534 147.955 C 119.216 147.955,119.198 147.662,119.151 141.888 C 119.073 132.351,119.130 130.697,119.535 130.697 C 119.936 130.697,120.084 130.226,120.087 128.944 C 120.090 128.058,120.117 128.000,120.539 128.000 C 120.910 128.000,120.989 127.913,120.989 127.504 C 120.989 127.224,121.184 126.797,121.438 126.523 C 121.685 126.256,121.888 125.878,121.888 125.683 C 121.888 125.452,122.029 125.308,122.292 125.271 C 122.552 125.234,122.717 125.069,122.754 124.809 C 122.790 124.559,122.936 124.404,123.139 124.404 C 123.339 124.404,123.511 124.229,123.579 123.955 C 123.650 123.676,123.820 123.506,124.029 123.506 C 124.235 123.506,124.408 123.337,124.475 123.069 C 124.544 122.796,124.737 122.610,124.989 122.574 C 125.211 122.543,125.403 122.416,125.416 122.292 C 125.428 122.169,125.448 121.991,125.461 121.898 C 125.473 121.805,125.827 121.704,126.247 121.673 C 126.877 121.628,127.021 121.548,127.068 121.222 C 127.116 120.882,127.252 120.820,128.056 120.773 C 128.867 120.726,128.996 120.666,129.046 120.315 C 129.141 119.647,135.131 119.687,135.804 120.360 M192.032 120.315 C 192.081 120.656,192.216 120.727,192.905 120.772 C 193.543 120.814,193.757 120.911,193.894 121.222 C 194.027 121.525,194.247 121.631,194.831 121.673 C 195.507 121.722,195.596 121.780,195.596 122.168 C 195.596 122.516,195.688 122.607,196.045 122.607 C 196.404 122.607,196.494 122.697,196.494 123.056 C 196.494 123.416,196.584 123.506,196.944 123.506 C 197.303 123.506,197.393 123.596,197.393 123.955 C 197.393 124.315,197.483 124.404,197.843 124.404 C 198.202 124.404,198.292 124.494,198.292 124.854 C 198.292 125.213,198.382 125.303,198.742 125.303 C 199.161 125.303,199.191 125.363,199.191 126.202 C 199.191 127.041,199.221 127.101,199.640 127.101 C 200.077 127.101,200.090 127.137,200.090 128.356 C 200.090 129.541,200.115 129.617,200.534 129.723 C 200.970 129.832,200.979 129.869,201.028 131.928 C 201.076 133.904,201.102 134.033,201.483 134.200 C 201.877 134.373,201.888 134.450,201.888 137.079 C 201.888 139.708,201.877 139.785,201.483 139.957 C 201.095 140.128,201.077 140.237,201.029 142.656 C 200.982 145.066,200.962 145.185,200.580 145.353 C 200.233 145.505,200.173 145.687,200.127 146.730 C 200.079 147.813,200.035 147.938,199.677 147.989 C 199.345 148.036,199.272 148.176,199.228 148.860 C 199.186 149.498,199.089 149.712,198.778 149.849 C 198.475 149.982,198.369 150.202,198.327 150.787 C 198.278 151.462,198.220 151.551,197.832 151.551 C 197.487 151.551,197.393 151.644,197.393 151.987 C 197.393 152.304,197.282 152.440,196.989 152.482 C 196.732 152.518,196.564 152.684,196.528 152.935 C 196.497 153.153,196.319 153.380,196.133 153.439 C 195.946 153.498,195.744 153.704,195.682 153.897 C 195.621 154.090,195.496 154.257,195.404 154.270 C 195.311 154.282,195.135 154.302,195.011 154.315 C 194.888 154.327,194.776 154.438,194.764 154.562 C 194.752 154.685,194.731 154.867,194.719 154.966 C 194.707 155.065,194.494 155.146,194.247 155.146 C 193.888 155.146,193.798 155.236,193.798 155.596 C 193.798 156.015,193.738 156.045,192.899 156.045 C 192.060 156.045,192.000 156.075,192.000 156.494 L 192.000 156.944 187.878 156.944 L 183.755 156.944 183.698 156.539 C 183.649 156.197,183.514 156.127,182.826 156.082 C 182.187 156.040,181.973 155.943,181.837 155.632 C 181.704 155.329,181.484 155.223,180.899 155.181 C 180.224 155.132,180.135 155.074,180.135 154.686 C 180.135 154.338,180.042 154.247,179.685 154.247 C 179.326 154.247,179.236 154.157,179.236 153.798 C 179.236 153.438,179.146 153.348,178.787 153.348 C 178.427 153.348,178.337 153.258,178.337 152.899 C 178.337 152.539,178.247 152.449,177.888 152.449 C 177.496 152.449,177.438 152.371,177.438 151.835 C 177.438 150.988,177.280 150.652,176.880 150.652 C 176.612 150.652,176.539 150.520,176.539 150.037 C 176.539 149.190,176.381 148.854,175.981 148.854 C 175.679 148.854,175.640 148.710,175.640 147.599 C 175.640 146.410,175.617 146.338,175.191 146.231 L 174.742 146.118 174.742 139.306 C 174.742 134.900,174.805 132.486,174.921 132.472 C 175.020 132.460,175.202 132.439,175.326 132.427 C 175.480 132.412,175.567 131.954,175.603 130.966 C 175.650 129.702,175.709 129.480,176.098 129.132 C 176.444 128.822,176.539 128.560,176.539 127.919 C 176.539 127.166,176.575 127.101,176.989 127.101 C 177.345 127.101,177.438 127.010,177.438 126.664 C 177.438 126.348,177.550 126.211,177.843 126.170 C 178.188 126.121,178.255 125.987,178.302 125.258 C 178.351 124.487,178.399 124.404,178.796 124.404 C 179.145 124.404,179.236 124.312,179.236 123.955 C 179.236 123.596,179.326 123.506,179.685 123.506 C 180.042 123.506,180.135 123.415,180.135 123.067 C 180.135 122.678,180.224 122.621,180.899 122.572 C 181.489 122.529,181.703 122.425,181.840 122.112 C 181.949 121.864,182.175 121.708,182.425 121.708 C 182.737 121.708,182.831 121.605,182.831 121.266 C 182.831 120.843,182.885 120.823,184.135 120.772 C 185.331 120.723,185.443 120.686,185.496 120.315 C 185.553 119.912,185.571 119.910,188.764 119.910 C 191.957 119.910,191.975 119.912,192.032 120.315 M296.270 120.360 C 296.270 120.779,296.330 120.809,297.169 120.809 C 298.007 120.809,298.067 120.839,298.067 121.258 C 298.067 121.678,298.127 121.708,298.966 121.708 C 299.805 121.708,299.865 121.738,299.865 122.157 C 299.865 122.517,299.955 122.607,300.315 122.607 C 300.676 122.607,300.764 122.696,300.764 123.064 C 300.764 123.316,300.966 123.724,301.213 123.971 C 301.461 124.219,301.663 124.619,301.663 124.862 C 301.663 125.213,301.755 125.303,302.112 125.303 C 302.532 125.303,302.562 125.363,302.562 126.202 C 302.562 127.041,302.592 127.101,303.011 127.101 L 303.461 127.101 303.461 128.899 L 303.461 130.697 303.910 130.697 C 304.335 130.697,304.360 130.751,304.360 131.685 L 304.360 132.674 292.180 132.650 C 285.481 132.636,280.172 132.591,280.383 132.550 C 280.790 132.470,280.983 131.806,280.987 130.466 C 280.988 130.037,281.086 129.749,281.252 129.686 C 281.475 129.600,281.684 129.222,281.811 128.674 C 281.829 128.600,281.853 128.216,281.865 127.820 C 281.885 127.197,281.943 127.101,282.299 127.101 C 282.589 127.101,282.718 126.989,282.739 126.720 C 282.754 126.511,282.933 126.223,283.136 126.081 C 283.352 125.930,283.552 125.529,283.618 125.114 C 283.713 124.519,283.800 124.404,284.158 124.404 C 284.493 124.404,284.584 124.308,284.584 123.955 C 284.584 123.596,284.674 123.506,285.034 123.506 C 285.393 123.506,285.483 123.416,285.483 123.056 C 285.483 122.697,285.573 122.607,285.933 122.607 C 286.292 122.607,286.382 122.517,286.382 122.157 C 286.382 121.746,286.449 121.708,287.172 121.708 C 287.859 121.708,287.975 121.651,288.071 121.268 C 288.166 120.890,288.301 120.821,289.035 120.774 C 289.635 120.735,289.895 120.639,289.912 120.449 C 289.925 120.301,289.945 120.119,289.957 120.045 C 289.968 119.971,291.393 119.910,293.124 119.910 L 296.270 119.910 296.270 120.360 M368.000 126.592 C 366.576 126.752,365.239 127.204,364.045 127.927 C 363.798 128.077,363.324 128.321,362.992 128.470 C 360.577 129.551,357.300 134.383,356.752 137.669 C 356.609 138.531,356.410 139.378,356.312 139.551 C 356.118 139.889,356.257 139.953,356.647 139.706 C 356.789 139.616,356.955 138.972,357.050 138.136 C 357.151 137.243,357.377 136.392,357.661 135.835 C 357.909 135.348,358.112 134.846,358.112 134.719 C 358.112 134.592,358.315 134.190,358.562 133.826 C 358.809 133.461,359.011 133.013,359.011 132.829 C 359.011 132.645,359.130 132.494,359.275 132.494 C 359.419 132.494,359.633 132.312,359.749 132.090 C 360.056 131.501,360.441 131.082,361.945 129.697 C 362.422 129.258,362.916 128.899,363.044 128.899 C 363.171 128.899,363.559 128.707,363.906 128.471 C 364.252 128.236,364.850 127.943,365.234 127.820 C 365.618 127.696,366.083 127.464,366.266 127.303 C 366.785 126.848,373.106 126.871,373.753 127.330 C 374.000 127.506,374.526 127.735,374.921 127.841 C 375.317 127.946,375.802 128.179,376.000 128.358 C 376.341 128.667,377.703 129.144,377.843 129.003 C 377.935 128.912,376.056 127.903,374.652 127.289 C 373.585 126.823,372.851 126.686,370.337 126.485 C 369.892 126.449,368.840 126.497,368.000 126.592 M345.888 133.537 C 345.888 133.723,346.277 134.112,346.463 134.112 C 346.542 134.112,346.607 133.951,346.607 133.753 C 346.607 133.513,346.487 133.393,346.247 133.393 C 346.049 133.393,345.888 133.458,345.888 133.537 " stroke="none" fill="#f36b24" fill-rule="evenodd"></path><path id="path2" d="M334.921 37.843 C 334.921 38.221,334.837 38.292,334.388 38.292 C 334.040 38.292,333.666 38.477,333.309 38.826 C 332.952 39.175,332.660 39.319,332.463 39.244 C 332.244 39.160,332.191 39.203,332.267 39.401 C 332.412 39.779,332.174 40.103,331.727 40.136 C 331.520 40.152,331.355 40.208,331.360 40.262 C 331.402 40.734,331.264 40.972,330.921 41.021 C 330.665 41.058,330.496 41.223,330.461 41.472 C 330.426 41.717,330.257 41.887,330.011 41.922 C 329.762 41.957,329.597 42.126,329.561 42.382 C 329.519 42.675,329.382 42.787,329.066 42.787 C 328.732 42.787,328.629 42.882,328.629 43.193 C 328.629 43.443,328.473 43.669,328.225 43.778 C 327.966 43.891,327.799 44.144,327.760 44.481 C 327.716 44.870,327.659 44.940,327.542 44.750 C 327.409 44.535,327.333 44.545,327.063 44.815 C 326.782 45.096,326.776 45.158,327.011 45.307 C 327.190 45.420,327.205 45.479,327.056 45.480 C 326.933 45.482,326.831 45.685,326.831 45.933 C 326.831 46.292,326.742 46.382,326.382 46.382 C 325.991 46.382,325.933 46.461,325.933 46.989 C 325.933 47.354,325.807 47.695,325.618 47.843 C 325.326 48.072,325.323 48.064,325.573 47.730 C 325.823 47.397,325.820 47.389,325.530 47.616 C 325.358 47.751,325.258 47.927,325.308 48.008 C 325.358 48.089,325.317 48.206,325.216 48.268 C 325.116 48.330,325.032 48.639,325.031 48.954 C 325.029 49.386,324.986 49.461,324.858 49.258 C 324.709 49.023,324.646 49.030,324.366 49.310 C 324.086 49.590,324.079 49.653,324.315 49.802 C 324.494 49.915,324.509 49.973,324.360 49.975 C 324.224 49.976,324.135 50.222,324.135 50.594 C 324.135 51.037,324.009 51.309,323.685 51.563 C 323.281 51.881,323.236 52.046,323.236 53.194 C 323.236 54.455,323.145 54.621,322.562 54.427 C 322.488 54.402,322.373 55.272,322.306 56.360 C 322.165 58.679,322.146 58.801,321.945 58.676 C 321.861 58.624,321.846 58.494,321.912 58.387 C 321.985 58.269,321.949 58.243,321.823 58.322 C 321.707 58.393,321.659 58.527,321.716 58.619 C 321.772 58.711,321.735 58.787,321.633 58.787 C 321.188 58.787,321.482 67.485,321.933 67.683 C 322.316 67.851,322.337 67.962,322.337 69.781 C 322.337 71.669,322.433 72.343,322.679 72.191 C 323.001 71.992,323.218 72.461,323.257 73.442 C 323.290 74.255,323.775 75.577,323.775 74.853 C 323.775 74.278,324.124 75.240,324.158 75.910 C 324.197 76.670,324.248 76.764,324.618 76.764 C 325.005 76.764,325.188 77.383,325.056 78.244 C 325.045 78.316,325.238 78.426,325.484 78.488 C 325.835 78.576,325.933 78.716,325.933 79.129 C 325.933 79.462,326.099 79.812,326.382 80.074 C 326.629 80.303,326.831 80.663,326.831 80.875 C 326.831 81.164,326.942 81.258,327.281 81.258 C 327.640 81.258,327.730 81.348,327.730 81.708 C 327.730 82.067,327.820 82.157,328.180 82.157 C 328.506 82.157,328.629 82.254,328.629 82.508 C 328.629 82.701,328.912 83.133,329.257 83.469 C 329.602 83.804,329.824 84.138,329.751 84.211 C 329.678 84.285,329.739 84.318,329.888 84.285 C 330.037 84.251,330.135 84.331,330.108 84.463 C 330.081 84.594,330.141 84.650,330.243 84.587 C 330.344 84.524,330.427 84.559,330.427 84.664 C 330.427 84.768,330.629 84.854,330.876 84.854 C 331.236 84.854,331.326 84.944,331.326 85.303 C 331.326 85.663,331.416 85.753,331.775 85.753 C 332.135 85.753,332.225 85.843,332.225 86.202 C 332.225 86.562,332.315 86.652,332.674 86.652 C 333.034 86.652,333.124 86.742,333.124 87.101 C 333.124 87.424,333.220 87.551,333.468 87.551 C 333.984 87.551,334.444 87.761,334.224 87.896 C 334.112 87.966,334.186 88.106,334.408 88.244 C 334.714 88.435,334.755 88.434,334.644 88.238 C 334.535 88.047,334.556 88.044,334.751 88.225 C 334.884 88.348,335.179 88.449,335.407 88.449 C 335.728 88.449,335.820 88.550,335.820 88.899 C 335.820 89.318,335.881 89.348,336.707 89.348 C 337.489 89.348,337.600 89.396,337.650 89.753 C 337.701 90.106,337.829 90.164,338.656 90.212 C 339.225 90.244,339.561 90.338,339.495 90.444 C 339.227 90.877,339.830 91.146,341.066 91.146 C 341.852 91.146,342.272 91.213,342.202 91.326 C 342.141 91.425,342.177 91.506,342.282 91.506 C 342.386 91.506,342.472 91.422,342.472 91.319 C 342.472 91.211,342.578 91.230,342.724 91.364 C 342.862 91.491,342.902 91.623,342.813 91.656 C 342.092 91.922,343.611 92.026,348.274 92.029 L 353.708 92.032 354.382 90.980 C 354.753 90.402,355.056 89.817,355.056 89.681 C 355.056 89.444,355.965 87.396,356.321 86.831 C 356.415 86.683,356.693 86.183,356.939 85.721 C 357.185 85.258,357.475 84.825,357.582 84.758 C 357.690 84.692,357.833 84.489,357.900 84.308 C 358.098 83.774,361.231 80.493,362.368 79.629 C 362.944 79.191,363.456 78.783,363.506 78.722 C 363.555 78.662,363.871 78.471,364.208 78.298 C 364.545 78.125,364.909 77.911,365.017 77.823 C 365.353 77.546,367.306 76.584,367.531 76.584 C 367.648 76.584,368.062 76.422,368.450 76.224 C 368.839 76.026,369.806 75.742,370.601 75.593 C 373.072 75.130,375.016 74.438,375.199 73.958 C 375.286 73.728,375.522 73.436,375.724 73.311 C 376.037 73.115,376.090 72.895,376.090 71.777 C 376.090 71.042,376.168 70.462,376.270 70.449 C 376.369 70.437,376.551 70.417,376.674 70.404 C 376.837 70.388,376.915 69.772,376.956 68.163 L 377.013 65.944 375.967 66.025 C 375.392 66.070,374.584 66.236,374.171 66.396 C 372.519 67.034,363.694 66.949,362.232 66.282 C 361.894 66.127,361.062 65.919,360.383 65.818 C 359.704 65.718,359.016 65.519,358.855 65.376 C 358.694 65.234,358.220 65.062,357.803 64.993 C 357.386 64.925,356.860 64.725,356.635 64.548 C 356.409 64.371,355.970 64.171,355.659 64.103 C 355.348 64.035,354.958 63.830,354.793 63.648 C 354.628 63.466,354.218 63.265,353.881 63.202 C 353.544 63.138,353.165 62.948,353.039 62.779 C 352.912 62.610,352.506 62.332,352.135 62.160 C 351.764 61.989,351.461 61.766,351.461 61.666 C 351.461 61.565,351.336 61.483,351.183 61.483 C 351.030 61.483,350.703 61.281,350.456 61.034 C 350.208 60.787,349.941 60.584,349.861 60.584 C 349.781 60.584,349.464 60.362,349.155 60.090 C 348.847 59.818,348.306 59.353,347.954 59.056 C 347.087 58.327,345.559 56.753,344.550 55.551 C 344.094 55.007,343.601 54.434,343.456 54.277 C 343.310 54.120,343.191 53.908,343.191 53.805 C 343.191 53.701,343.065 53.512,342.910 53.384 C 342.519 53.060,341.393 51.337,341.393 51.064 C 341.393 50.940,341.191 50.598,340.944 50.304 C 340.697 50.011,340.494 49.666,340.494 49.539 C 340.494 49.411,340.338 49.108,340.146 48.864 C 339.954 48.620,339.741 48.185,339.671 47.896 C 339.601 47.607,339.363 47.047,339.141 46.652 C 338.919 46.256,338.680 45.609,338.612 45.213 C 338.543 44.818,338.367 44.361,338.221 44.199 C 338.075 44.036,337.879 43.364,337.786 42.705 C 337.693 42.046,337.499 41.281,337.356 41.005 C 337.166 40.636,336.719 38.139,336.719 37.443 C 336.719 37.416,336.315 37.393,335.820 37.393 C 334.981 37.393,334.921 37.423,334.921 37.843 M377.933 129.203 C 378.106 129.248,378.389 129.248,378.562 129.203 C 378.735 129.157,378.593 129.120,378.247 129.120 C 377.901 129.120,377.760 129.157,377.933 129.203 M356.190 139.910 C 355.791 140.093,355.478 140.584,355.761 140.584 C 355.984 140.584,356.781 139.912,356.674 139.813 C 356.625 139.767,356.407 139.811,356.190 139.910 " stroke="none" fill="#bbbbbb" fill-rule="evenodd"></path><path id="path3" d="M336.731 37.398 C 336.675 37.856,337.153 40.611,337.356 41.005 C 337.499 41.281,337.693 42.046,337.786 42.705 C 337.879 43.364,338.075 44.036,338.221 44.199 C 338.367 44.361,338.543 44.818,338.612 45.213 C 338.680 45.609,338.919 46.256,339.141 46.652 C 339.363 47.047,339.601 47.607,339.671 47.896 C 339.741 48.185,339.954 48.620,340.146 48.864 C 340.338 49.108,340.494 49.411,340.494 49.539 C 340.494 49.666,340.697 50.011,340.944 50.304 C 341.191 50.598,341.393 50.940,341.393 51.064 C 341.393 51.337,342.519 53.060,342.910 53.384 C 343.065 53.512,343.191 53.701,343.191 53.805 C 343.191 53.908,343.310 54.120,343.456 54.277 C 343.601 54.434,344.094 55.007,344.550 55.551 C 345.559 56.753,347.087 58.327,347.954 59.056 C 348.306 59.353,348.847 59.818,349.155 60.090 C 349.464 60.362,349.781 60.584,349.861 60.584 C 349.941 60.584,350.208 60.787,350.456 61.034 C 350.703 61.281,351.030 61.483,351.183 61.483 C 351.336 61.483,351.461 61.565,351.461 61.666 C 351.461 61.766,351.764 61.989,352.135 62.160 C 352.506 62.332,352.912 62.610,353.039 62.779 C 353.165 62.948,353.544 63.138,353.881 63.202 C 354.218 63.265,354.628 63.466,354.793 63.648 C 354.958 63.830,355.348 64.035,355.659 64.103 C 355.970 64.171,356.409 64.371,356.635 64.548 C 356.860 64.725,357.386 64.925,357.803 64.993 C 358.220 65.062,358.694 65.234,358.855 65.376 C 359.016 65.519,359.704 65.718,360.383 65.818 C 361.062 65.919,361.894 66.127,362.232 66.282 C 363.694 66.949,372.519 67.034,374.171 66.396 C 374.584 66.236,375.387 66.070,375.956 66.026 C 376.525 65.982,376.945 65.872,376.889 65.782 C 376.719 65.506,375.451 65.598,373.706 66.013 C 369.184 67.087,361.420 66.229,356.854 64.150 C 355.204 63.399,353.505 62.522,352.719 62.016 C 352.274 61.730,351.667 61.361,351.371 61.196 C 350.662 60.802,347.050 57.758,346.247 56.878 C 345.471 56.027,344.682 55.087,344.090 54.308 C 343.843 53.983,343.470 53.503,343.261 53.241 C 343.053 52.979,342.747 52.521,342.581 52.225 C 342.415 51.928,342.004 51.240,341.667 50.697 C 340.586 48.954,339.176 45.952,338.965 44.944 C 338.892 44.598,338.716 44.086,338.574 43.807 C 338.431 43.528,338.205 42.759,338.073 42.099 C 337.553 39.512,336.796 36.861,336.731 37.398 M342.409 91.411 C 342.356 91.547,342.446 91.766,342.607 91.897 C 342.780 92.037,342.849 92.049,342.775 91.925 C 342.706 91.810,342.723 91.689,342.813 91.656 C 342.902 91.623,342.870 91.498,342.740 91.379 C 342.555 91.209,342.484 91.216,342.409 91.411 M377.426 129.682 C 377.363 129.965,377.117 130.482,376.880 130.831 C 376.643 131.180,376.449 131.543,376.449 131.637 C 376.449 131.827,376.123 132.271,374.632 134.111 C 372.360 136.913,369.289 138.867,365.436 139.962 C 363.533 140.503,357.636 140.439,356.950 139.871 C 356.777 139.727,356.689 139.748,356.610 139.952 C 356.552 140.104,356.300 140.321,356.050 140.435 C 355.354 140.752,355.351 143.951,356.045 144.646 C 356.404 145.005,356.494 145.275,356.494 145.994 C 356.494 146.713,356.584 146.983,356.944 147.342 C 357.191 147.589,357.393 147.990,357.393 148.233 C 357.393 148.476,357.479 148.674,357.584 148.674 C 357.688 148.674,357.716 148.775,357.645 148.899 C 357.574 149.022,357.582 149.064,357.663 148.990 C 357.931 148.747,358.292 149.249,358.292 149.865 C 358.292 150.393,358.351 150.472,358.742 150.472 C 359.101 150.472,359.191 150.562,359.191 150.921 C 359.191 151.281,359.281 151.371,359.640 151.371 C 360.000 151.371,360.090 151.461,360.090 151.820 C 360.090 152.176,360.181 152.270,360.527 152.270 C 360.839 152.270,360.980 152.382,361.021 152.662 C 361.059 152.917,361.257 153.102,361.587 153.189 C 361.866 153.264,362.239 153.492,362.417 153.696 C 362.594 153.900,362.952 154.067,363.212 154.067 C 363.557 154.067,363.685 154.160,363.685 154.408 C 363.685 154.850,364.023 154.966,365.306 154.966 C 366.259 154.966,366.362 155.004,366.414 155.371 C 366.471 155.772,366.497 155.776,369.933 155.824 L 373.393 155.873 373.393 155.427 C 373.393 154.999,373.444 154.980,374.697 154.929 C 375.893 154.881,376.005 154.843,376.057 154.472 C 376.110 154.100,376.875 153.908,377.753 154.046 C 377.827 154.058,377.878 154.007,377.866 153.933 C 377.782 153.401,377.926 153.169,378.337 153.169 C 378.697 153.169,378.787 153.079,378.787 152.719 C 378.787 152.360,378.876 152.270,379.236 152.270 C 379.596 152.270,379.685 152.180,379.685 151.820 C 379.685 151.461,379.775 151.371,380.135 151.371 C 380.494 151.371,380.584 151.281,380.584 150.921 C 380.584 150.562,380.674 150.472,381.034 150.472 C 381.381 150.472,381.483 150.379,381.483 150.065 C 381.483 149.816,381.640 149.590,381.888 149.481 C 382.200 149.344,382.305 149.129,382.347 148.539 C 382.396 147.864,382.454 147.775,382.842 147.775 C 383.258 147.775,383.281 147.720,383.281 146.710 C 383.281 145.787,383.341 145.597,383.730 145.291 L 384.180 144.937 384.180 140.603 L 384.180 136.270 383.738 136.270 C 383.315 136.270,383.294 136.216,383.244 134.966 C 383.195 133.770,383.158 133.658,382.787 133.605 C 382.437 133.556,382.382 133.441,382.382 132.755 C 382.382 132.059,382.327 131.948,381.933 131.849 C 381.610 131.768,381.483 131.615,381.483 131.306 C 381.483 130.968,381.388 130.876,381.034 130.876 C 380.674 130.876,380.584 130.787,380.584 130.427 C 380.584 130.067,380.494 129.978,380.135 129.978 C 379.778 129.978,379.685 129.887,379.685 129.537 C 379.685 128.800,377.592 128.935,377.426 129.682 " stroke="none" fill="#74a3c2" fill-rule="evenodd"></path><path id="path4" d="M352.000 104.336 C 352.000 104.784,351.952 104.809,351.101 104.809 C 350.262 104.809,350.202 104.839,350.202 105.258 C 350.202 105.618,350.112 105.708,349.753 105.708 C 349.393 105.708,349.303 105.798,349.303 106.157 C 349.303 106.517,349.213 106.607,348.854 106.607 C 348.494 106.607,348.404 106.697,348.404 107.056 C 348.404 107.416,348.315 107.506,347.955 107.506 C 347.596 107.506,347.506 107.596,347.506 107.955 C 347.506 108.315,347.416 108.404,347.056 108.404 C 346.700 108.404,346.607 108.495,346.607 108.841 C 346.607 109.158,346.495 109.294,346.202 109.336 C 345.893 109.380,345.785 109.530,345.742 109.973 C 345.708 110.327,345.514 110.688,345.247 110.898 C 345.006 111.088,344.809 111.417,344.809 111.630 C 344.809 111.842,344.607 112.219,344.360 112.466 C 344.001 112.824,343.910 113.096,343.910 113.806 C 343.910 114.636,343.880 114.697,343.461 114.697 L 343.011 114.697 343.011 116.924 L 343.011 119.152 342.554 119.267 L 342.097 119.381 342.123 121.803 C 342.137 123.135,342.221 124.235,342.310 124.247 C 342.399 124.260,342.573 124.280,342.697 124.292 C 342.858 124.308,342.936 124.866,342.973 126.262 C 343.020 128.067,343.056 128.238,343.467 128.619 C 343.815 128.942,343.910 129.208,343.910 129.863 C 343.910 130.627,343.947 130.697,344.350 130.697 C 344.747 130.697,344.795 130.780,344.844 131.551 C 344.891 132.279,344.958 132.413,345.303 132.462 C 345.596 132.504,345.708 132.640,345.708 132.956 C 345.708 133.300,345.802 133.393,346.147 133.393 C 346.544 133.393,346.592 133.476,346.642 134.247 C 346.689 134.976,346.756 135.110,347.101 135.159 C 347.394 135.200,347.506 135.337,347.506 135.653 C 347.506 135.996,347.600 136.090,347.943 136.090 C 348.259 136.090,348.395 136.202,348.437 136.494 C 348.469 136.717,348.596 136.909,348.719 136.921 C 348.843 136.934,349.025 136.954,349.124 136.966 C 349.222 136.979,349.303 137.075,349.303 137.181 C 349.303 137.383,349.760 137.905,349.926 137.894 C 350.905 137.829,351.101 137.903,351.101 138.337 C 351.101 138.697,351.191 138.787,351.551 138.787 C 351.952 138.787,352.087 138.955,352.021 139.371 C 352.010 139.445,352.020 139.510,352.045 139.515 C 352.070 139.520,352.454 139.570,352.899 139.627 C 353.426 139.693,353.845 139.878,354.103 140.157 C 355.186 141.325,356.304 140.318,356.723 137.799 C 357.288 134.400,360.533 129.571,362.992 128.470 C 363.324 128.321,363.798 128.077,364.045 127.927 C 367.599 125.774,372.610 125.975,376.980 128.445 C 378.398 129.246,378.787 129.266,378.787 128.539 C 378.787 128.039,378.971 127.898,379.534 127.973 C 379.779 128.006,379.714 122.606,379.468 122.517 C 379.340 122.470,377.578 122.406,375.551 122.373 C 372.676 122.326,371.721 122.250,371.208 122.027 C 370.847 121.869,370.078 121.644,369.500 121.526 C 368.922 121.408,368.328 121.206,368.180 121.078 C 368.031 120.950,367.597 120.760,367.215 120.656 C 366.832 120.552,366.387 120.355,366.226 120.218 C 366.065 120.081,365.649 119.858,365.303 119.722 C 363.242 118.910,359.324 115.374,357.473 112.655 C 356.479 111.195,354.876 108.112,354.876 107.660 C 354.876 107.520,354.756 107.234,354.609 107.024 C 354.461 106.813,354.223 106.137,354.079 105.519 C 353.766 104.176,353.692 104.090,352.741 103.962 C 352.035 103.868,352.000 103.885,352.000 104.336 " stroke="none" fill="#fbb314" fill-rule="evenodd"></path></g></svg>